<?xml version="1.0" standalone="no"?>
<!DOCTYPE svg PUBLIC "-//W3C//DTD SVG 20010904//EN"
 "http://www.w3.org/TR/2001/REC-SVG-20010904/DTD/svg10.dtd">
<svg version="1.0" xmlns="http://www.w3.org/2000/svg" viewBox="0 0 1474.000000 478.000000"
 preserveAspectRatio="xMidYMid meet">

<g transform="translate(0.000000,478.000000) scale(0.100000,-0.100000)"
fill="#428bca" stroke="none">
<path d="M8860 3765 l0 -325 -185 0 -185 0 0 -220 0 -220 185 0 185 0 0 -900
0 -900 240 0 240 0 0 900 0 900 230 0 230 0 0 220 0 220 -230 0 -230 0 0 325
0 325 -240 0 -240 0 0 -325z"/>
<path d="M10782 4053 c-52 -26 -76 -68 -80 -143 -3 -50 1 -76 17 -113 21 -49
71 -128 114 -181 l24 -29 61 92 c70 105 97 181 87 246 -16 113 -127 176 -223
128z"/>
<path d="M2195 3484 c-389 -59 -717 -298 -886 -644 -117 -240 -151 -569 -85
-825 86 -329 367 -653 685 -790 332 -142 704 -115 1072 76 l79 41 0 269 c0
166 -4 269 -10 269 -5 0 -38 -18 -72 -41 -100 -65 -309 -164 -400 -190 -71
-20 -105 -24 -228 -23 -132 0 -152 2 -220 27 -318 116 -517 445 -470 775 22
154 74 255 195 377 221 224 506 281 841 170 98 -33 247 -102 309 -144 57 -39
56 -44 53 242 l-3 262 -60 29 c-237 115 -539 160 -800 120z"/>
<path d="M4374 3484 c-236 -39 -434 -142 -613 -317 -251 -246 -379 -573 -357
-915 17 -264 95 -481 239 -665 212 -272 482 -418 826 -447 436 -38 820 116
1102 441 l50 57 -167 127 c-92 70 -172 129 -178 131 -6 2 -40 -26 -76 -62
-163 -166 -335 -247 -555 -261 -283 -18 -576 129 -700 352 -37 65 -84 191
-100 263 l-7 32 953 0 952 0 -6 133 c-15 321 -132 591 -350 806 -142 140 -282
229 -448 285 -160 54 -389 70 -565 40z m387 -449 c179 -47 335 -176 446 -369
l32 -56 -675 0 -674 0 21 43 c59 117 188 257 290 314 65 37 163 70 244 83 80
12 239 5 316 -15z"/>
<path d="M7250 3486 c-179 -42 -303 -120 -497 -315 l-93 -93 0 181 0 181 -235
0 -235 0 0 -1125 0 -1125 238 2 237 3 5 690 c6 747 4 720 63 848 79 174 248
318 406 347 214 40 387 -44 475 -229 l31 -66 3 -797 3 -798 239 0 240 0 0 848
c0 705 -3 859 -15 916 -49 233 -247 437 -500 516 -88 27 -282 36 -365 16z"/>
<path d="M10685 3486 c-222 -44 -389 -157 -493 -333 -100 -169 -104 -426 -9
-583 88 -146 240 -252 547 -380 328 -137 442 -230 442 -360 0 -163 -234 -294
-445 -250 -77 16 -200 79 -264 135 l-53 46 -189 -92 -190 -92 44 -57 c137
-178 321 -308 500 -355 149 -39 342 -38 476 1 225 67 435 262 511 477 31 85
33 294 4 377 -66 195 -199 326 -464 459 -56 28 -136 65 -177 81 -201 80 -322
159 -362 234 -19 37 -18 117 2 155 42 83 135 117 296 109 110 -5 166 -27 308
-118 l81 -52 39 34 c22 18 94 80 160 138 l121 105 -43 38 c-111 98 -304 210
-447 258 -80 27 -113 32 -210 35 -71 2 -142 -2 -185 -10z"/>
<path d="M12890 3481 c-167 -37 -302 -105 -435 -218 -280 -238 -435 -572 -435
-935 0 -359 130 -673 377 -909 180 -171 359 -256 597 -279 345 -34 654 108
882 406 l59 77 3 -217 2 -216 240 0 240 0 0 1125 0 1125 -240 0 -240 0 0 -222
0 -221 -49 70 c-133 189 -356 345 -578 404 -113 31 -310 35 -423 10z m360
-445 c240 -43 449 -206 551 -432 85 -187 79 -428 -16 -619 -68 -138 -202 -272
-338 -338 -116 -57 -184 -71 -332 -71 -112 1 -141 4 -207 26 -124 41 -203 91
-303 192 -134 135 -193 258 -214 446 -24 213 37 396 183 557 181 197 425 284
676 239z"/>
<path d="M755 2495 c-72 -25 -116 -102 -101 -176 23 -115 160 -155 296 -86 55
28 180 113 180 123 0 1 -41 30 -90 63 -128 85 -202 105 -285 76z"/>
<path d="M1950 2457 c-55 -28 -180 -113 -180 -123 0 -13 192 -127 236 -140
165 -48 299 85 221 220 -48 84 -161 102 -277 43z"/>
<path d="M10801 960 c-69 -104 -96 -180 -86 -245 13 -90 83 -149 166 -142 130
11 180 151 106 297 -28 55 -113 180 -123 180 -1 0 -30 -41 -63 -90z"/>
</g>
</svg>
