<?xml version="1.0" encoding="UTF-8" standalone="no"?>
<!DOCTYPE svg PUBLIC "-//W3C//DTD SVG 1.1//EN" "http://www.w3.org/Graphics/SVG/1.1/DTD/svg11.dtd">
<svg version="1.1" xmlns="http://www.w3.org/2000/svg" xmlns:xlink="http://www.w3.org/1999/xlink" preserveAspectRatio="xMidYMid meet" viewBox="25 30 535 535" width="640" height="640"><defs><path d="M59.16 115.45L484.34 115.45L484.34 481.89L59.16 481.89L59.16 115.45Z" id="a45N99jILq"></path><path d="M554.87 42.8L554.87 447.11L552.4 470.68L545.07 493.22L533.23 513.74L517.37 531.35L498.2 545.28L476.55 554.92L453.37 559.85L127.38 559.85L104.2 554.92L82.55 545.28L63.38 531.35L47.52 513.74L35.67 493.22L28.35 470.68L25.87 447.11L25.87 144.83L28.35 121.26L35.67 98.72L47.52 78.2L63.38 60.59L82.55 46.65L104.2 37.02L127.38 32.09L162.09 32.09L162.18 32.02L547.04 32.02L552.71 36.14L554.87 42.8ZM63.66 477.34L309.27 477.34L309.27 420.66L63.66 420.66L63.66 477.34ZM387.59 207.05L365.95 216.69L346.77 230.62L330.92 248.23L319.07 268.75L311.74 291.29L309.27 314.86L311.74 338.43L319.07 360.97L330.92 381.49L346.77 399.1L365.95 413.03L387.59 422.67L410.78 427.6L434.47 427.6L457.65 422.67L475.52 414.71L475.52 357.2L468.13 365.41L456.63 373.76L443.64 379.55L429.73 382.5L415.51 382.5L401.61 379.55L388.62 373.76L377.11 365.41L367.6 354.84L360.49 342.53L356.1 329L354.61 314.86L356.1 300.72L360.49 287.2L367.6 274.88L377.11 264.32L388.62 255.96L401.61 250.18L415.51 247.22L429.73 247.22L443.64 250.18L456.63 255.96L468.13 264.32L475.52 272.52L475.52 215.01L457.65 207.05L434.47 202.13L410.78 202.13L387.59 207.05ZM63.66 401.77L214.8 401.77L214.8 345.09L63.66 345.09L63.66 401.77ZM374.22 312.64L374.22 317.08L405.96 335.62L413.19 337.46L420.63 336.84L427.47 333.84L432.96 328.79L436.51 322.22L437.74 314.86L436.51 307.5L432.96 300.94L427.47 295.88L420.63 292.88L413.19 292.27L405.96 294.1L374.22 312.64ZM237.23 298.18L232.65 304.07L230.23 311.13L230.23 318.59L232.65 325.65L237.23 331.54L243.48 335.62L250.72 337.46L258.15 336.84L264.99 333.84L291.54 318.45L294.15 314.86L291.54 311.27L264.99 295.88L258.15 292.88L250.72 292.27L243.48 294.1L237.23 298.18ZM63.66 326.2L158.12 326.2L158.12 269.52L63.66 269.52L63.66 326.2ZM63.66 250.63L214.8 250.63L214.8 193.95L63.66 193.95L63.66 250.63ZM63.66 175.05L479.3 175.05L479.3 118.38L63.66 118.38L63.66 175.05Z" id="b2sXC0Ey7x"></path></defs><g><g><g><use xlink:href="#a45N99jILq" opacity="1" fill="#ffffff" fill-opacity="1"></use></g><g><use xlink:href="#b2sXC0Ey7x" opacity="1" fill="#428bca" fill-opacity="1"></use><g><use xlink:href="#b2sXC0Ey7x" opacity="1" fill-opacity="0" stroke="#ffffff" stroke-width="0.5" stroke-opacity="1"></use></g></g></g></g></svg>
