<svg id="svg" version="1.1" width="400" height="129.71506105834465" xmlns="http://www.w3.org/2000/svg" xmlns:xlink="http://www.w3.org/1999/xlink" style="display: block;"><g id="svgg"><path id="path0" d="" stroke="none" fill="#0000ff" fill-rule="evenodd"></path><path id="path1" d="M240.333 27.417 L 240.333 36.167 235.333 36.167 L 230.333 36.167 230.333 42.333 L 230.333 48.500 235.333 48.500 L 240.333 48.500 240.333 72.833 L 240.333 97.167 247.000 97.167 L 253.667 97.167 253.667 72.833 L 253.667 48.500 259.833 48.500 L 266.000 48.500 266.000 42.333 L 266.000 36.167 259.833 36.167 L 253.667 36.167 253.667 27.417 L 253.667 18.667 247.000 18.667 L 240.333 18.667 240.333 27.417 M292.800 19.285 C 292.541 19.325,292.306 19.491,292.247 19.677 C 292.190 19.855,292.048 20.000,291.931 20.000 C 291.617 20.000,291.065 20.528,290.929 20.958 C 290.864 21.165,290.741 21.333,290.655 21.333 C 290.570 21.333,290.500 21.521,290.500 21.750 C 290.500 21.979,290.425 22.167,290.333 22.167 C 290.232 22.167,290.167 22.889,290.167 24.000 C 290.167 25.111,290.232 25.833,290.333 25.833 C 290.425 25.833,290.500 25.983,290.500 26.167 C 290.500 26.350,290.565 26.500,290.645 26.500 C 290.725 26.500,290.839 26.800,290.897 27.167 C 290.956 27.533,291.078 27.833,291.169 27.833 C 291.259 27.833,291.333 27.946,291.333 28.083 C 291.333 28.221,291.407 28.333,291.497 28.333 C 291.587 28.333,291.707 28.521,291.765 28.750 C 291.822 28.979,291.928 29.167,292.000 29.167 C 292.072 29.167,292.176 29.349,292.232 29.572 C 292.288 29.795,292.484 30.025,292.667 30.083 C 292.850 30.142,293.000 30.324,293.000 30.488 C 293.000 30.652,293.183 30.924,293.407 31.092 C 293.630 31.260,293.855 31.565,293.907 31.771 C 294.058 32.373,295.167 32.492,295.167 31.906 C 295.167 31.783,295.345 31.503,295.563 31.285 C 295.782 31.067,296.012 30.726,296.075 30.528 C 296.138 30.329,296.259 30.167,296.345 30.167 C 296.430 30.167,296.500 30.052,296.500 29.911 C 296.500 29.771,296.612 29.613,296.750 29.560 C 296.887 29.508,297.000 29.330,297.000 29.167 C 297.000 29.003,297.112 28.826,297.250 28.773 C 297.387 28.720,297.500 28.525,297.500 28.339 C 297.500 28.152,297.575 28.000,297.667 28.000 C 297.758 28.000,297.833 27.887,297.833 27.750 C 297.833 27.613,297.905 27.500,297.992 27.500 C 298.080 27.500,298.203 27.219,298.266 26.875 C 298.330 26.531,298.464 26.196,298.566 26.131 C 298.816 25.969,298.812 22.027,298.561 21.867 C 298.460 21.803,298.323 21.572,298.255 21.355 C 298.094 20.840,297.286 20.000,296.952 20.000 C 296.807 20.000,296.644 19.858,296.589 19.685 C 296.437 19.204,294.601 19.011,292.800 19.285 M60.542 34.779 C 59.969 34.817,59.500 34.912,59.500 34.988 C 59.500 35.065,58.862 35.180,58.083 35.245 C 57.304 35.310,56.667 35.432,56.667 35.515 C 56.667 35.598,56.404 35.667,56.083 35.667 C 55.762 35.667,55.500 35.735,55.500 35.818 C 55.500 35.901,55.125 36.020,54.667 36.083 C 54.208 36.146,53.833 36.266,53.833 36.349 C 53.833 36.432,53.646 36.500,53.417 36.500 C 53.188 36.500,53.000 36.566,53.000 36.648 C 53.000 36.729,52.663 36.846,52.250 36.908 C 51.837 36.970,51.500 37.082,51.500 37.158 C 51.500 37.234,51.237 37.345,50.917 37.406 C 50.596 37.466,50.333 37.587,50.333 37.674 C 50.333 37.762,50.221 37.833,50.083 37.833 C 49.946 37.833,49.833 37.905,49.833 37.992 C 49.833 38.080,49.571 38.201,49.250 38.261 C 48.929 38.321,48.667 38.437,48.667 38.519 C 48.667 38.600,48.554 38.667,48.417 38.667 C 48.279 38.667,48.167 38.740,48.167 38.830 C 48.167 38.920,47.979 39.041,47.750 39.098 C 47.521 39.156,47.333 39.262,47.333 39.333 C 47.333 39.405,47.146 39.511,46.917 39.568 C 46.688 39.626,46.500 39.747,46.500 39.837 C 46.500 39.926,46.415 40.000,46.311 40.000 C 46.207 40.000,45.948 40.188,45.735 40.417 C 45.523 40.646,45.233 40.833,45.091 40.833 C 44.949 40.833,44.833 40.911,44.833 41.005 C 44.833 41.100,44.702 41.225,44.542 41.283 C 44.381 41.341,43.812 41.826,43.276 42.361 C 42.741 42.896,42.241 43.333,42.166 43.333 C 42.012 43.333,40.833 44.442,40.833 44.587 C 40.833 44.714,40.549 45.047,39.708 45.906 C 39.319 46.304,39.000 46.679,39.000 46.739 C 39.000 46.799,38.812 47.036,38.583 47.265 C 38.354 47.494,38.167 47.764,38.167 47.863 C 38.167 47.963,37.979 48.219,37.750 48.431 C 37.521 48.644,37.333 48.896,37.333 48.992 C 37.333 49.088,37.258 49.167,37.167 49.167 C 37.075 49.167,37.000 49.319,37.000 49.505 C 37.000 49.691,36.887 49.887,36.750 49.940 C 36.612 49.992,36.500 50.178,36.500 50.351 C 36.500 50.525,36.425 50.667,36.333 50.667 C 36.242 50.667,36.167 50.782,36.167 50.922 C 36.167 51.062,36.054 51.220,35.917 51.273 C 35.779 51.326,35.667 51.511,35.667 51.684 C 35.667 51.858,35.601 52.000,35.521 52.000 C 35.441 52.000,35.328 52.300,35.269 52.667 C 35.211 53.033,35.095 53.333,35.011 53.333 C 34.928 53.333,34.810 53.558,34.750 53.833 C 34.690 54.108,34.571 54.333,34.487 54.333 C 34.402 54.333,34.333 54.521,34.333 54.750 C 34.333 54.979,34.265 55.167,34.182 55.167 C 34.099 55.167,33.980 55.542,33.917 56.000 C 33.854 56.458,33.734 56.833,33.651 56.833 C 33.568 56.833,33.500 57.015,33.500 57.236 C 33.500 57.458,33.429 57.664,33.341 57.694 C 33.254 57.725,33.131 58.275,33.067 58.917 C 33.003 59.558,32.888 60.124,32.812 60.175 C 32.735 60.225,32.623 61.031,32.561 61.966 C 32.500 62.901,32.386 63.667,32.308 63.667 C 32.230 63.667,32.167 65.317,32.167 67.333 C 32.167 69.350,32.231 71.000,32.309 71.000 C 32.388 71.000,32.504 71.692,32.568 72.537 C 32.632 73.383,32.746 74.114,32.822 74.162 C 32.898 74.211,33.014 74.719,33.080 75.292 C 33.146 75.865,33.267 76.333,33.350 76.333 C 33.432 76.333,33.500 76.521,33.500 76.750 C 33.500 76.979,33.565 77.167,33.645 77.167 C 33.725 77.167,33.839 77.467,33.897 77.833 C 33.956 78.200,34.078 78.500,34.169 78.500 C 34.259 78.500,34.333 78.688,34.333 78.917 C 34.333 79.146,34.405 79.333,34.492 79.333 C 34.580 79.333,34.701 79.596,34.761 79.917 C 34.821 80.237,34.931 80.500,35.005 80.500 C 35.079 80.500,35.190 80.725,35.250 81.000 C 35.310 81.275,35.429 81.500,35.513 81.500 C 35.598 81.500,35.667 81.612,35.667 81.750 C 35.667 81.887,35.742 82.000,35.833 82.000 C 35.925 82.000,36.000 82.152,36.000 82.339 C 36.000 82.525,36.112 82.720,36.250 82.773 C 36.387 82.826,36.500 82.973,36.500 83.101 C 36.500 83.229,36.575 83.333,36.667 83.333 C 36.758 83.333,36.833 83.486,36.833 83.672 C 36.833 83.858,36.946 84.054,37.083 84.106 C 37.221 84.159,37.333 84.310,37.333 84.442 C 37.333 84.575,37.510 84.848,37.727 85.050 C 37.943 85.251,38.172 85.582,38.235 85.783 C 38.299 85.985,38.493 86.195,38.667 86.250 C 38.841 86.305,39.034 86.510,39.096 86.705 C 39.158 86.900,39.686 87.538,40.271 88.123 C 40.855 88.707,41.333 89.294,41.333 89.426 C 41.333 89.558,41.443 89.667,41.577 89.667 C 41.711 89.667,42.382 90.229,43.067 90.917 C 43.753 91.604,44.381 92.167,44.464 92.167 C 44.547 92.167,44.751 92.317,44.917 92.500 C 45.083 92.683,45.285 92.833,45.367 92.833 C 45.448 92.833,45.703 93.021,45.932 93.250 C 46.161 93.479,46.441 93.667,46.554 93.667 C 46.667 93.667,46.868 93.817,47.000 94.000 C 47.132 94.183,47.339 94.333,47.459 94.333 C 47.579 94.333,47.717 94.437,47.766 94.565 C 47.815 94.692,48.085 94.842,48.366 94.898 C 48.648 94.955,49.004 95.145,49.157 95.322 C 49.311 95.500,49.638 95.695,49.885 95.757 C 50.132 95.819,50.333 95.936,50.333 96.018 C 50.333 96.100,50.521 96.167,50.750 96.167 C 50.979 96.167,51.167 96.236,51.167 96.320 C 51.167 96.404,51.392 96.523,51.667 96.583 C 51.942 96.644,52.167 96.754,52.167 96.828 C 52.167 96.902,52.504 97.013,52.917 97.075 C 53.329 97.136,53.667 97.257,53.667 97.344 C 53.667 97.430,53.817 97.500,54.000 97.500 C 54.183 97.500,54.333 97.565,54.333 97.645 C 54.333 97.725,54.783 97.841,55.333 97.903 C 55.883 97.966,56.333 98.088,56.333 98.175 C 56.333 98.262,56.552 98.333,56.819 98.333 C 57.087 98.333,57.331 98.406,57.361 98.495 C 57.392 98.584,58.560 98.708,59.958 98.770 C 61.356 98.833,62.500 98.948,62.500 99.026 C 62.500 99.103,63.250 99.167,64.167 99.167 C 65.083 99.167,65.833 99.103,65.833 99.025 C 65.833 98.948,66.714 98.837,67.790 98.779 C 68.882 98.721,69.773 98.599,69.804 98.504 C 69.836 98.410,70.155 98.333,70.514 98.333 C 70.873 98.333,71.167 98.267,71.167 98.186 C 71.167 98.105,71.654 97.987,72.250 97.923 C 72.846 97.859,73.333 97.738,73.333 97.653 C 73.333 97.569,73.521 97.500,73.750 97.500 C 73.979 97.500,74.167 97.432,74.167 97.349 C 74.167 97.266,74.542 97.146,75.000 97.083 C 75.458 97.020,75.833 96.902,75.833 96.820 C 75.833 96.738,76.133 96.623,76.500 96.564 C 76.867 96.505,77.167 96.392,77.167 96.312 C 77.167 96.232,77.279 96.167,77.417 96.167 C 77.554 96.167,77.667 96.100,77.667 96.019 C 77.667 95.938,78.004 95.821,78.417 95.759 C 78.829 95.697,79.167 95.576,79.167 95.490 C 79.167 95.404,79.279 95.333,79.417 95.333 C 79.554 95.333,79.667 95.264,79.667 95.180 C 79.667 95.096,79.892 94.977,80.167 94.917 C 80.442 94.856,80.667 94.746,80.667 94.672 C 80.667 94.598,80.929 94.488,81.250 94.428 C 81.571 94.367,81.833 94.247,81.833 94.159 C 81.833 94.072,81.946 94.000,82.083 94.000 C 82.221 94.000,82.333 93.926,82.333 93.837 C 82.333 93.747,82.521 93.626,82.750 93.568 L 83.167 93.464 83.167 85.982 L 83.167 78.500 82.667 78.500 C 82.392 78.500,82.167 78.570,82.167 78.655 C 82.167 78.741,81.998 78.864,81.792 78.929 C 81.585 78.994,81.304 79.176,81.167 79.333 C 81.029 79.490,80.748 79.672,80.542 79.737 C 80.335 79.803,80.167 79.926,80.167 80.011 C 80.167 80.097,80.054 80.167,79.917 80.167 C 79.779 80.167,79.667 80.238,79.667 80.326 C 79.667 80.413,79.409 80.533,79.095 80.592 C 78.780 80.651,78.483 80.805,78.433 80.933 C 78.384 81.062,78.229 81.167,78.089 81.167 C 77.948 81.167,77.833 81.242,77.833 81.333 C 77.833 81.425,77.683 81.500,77.500 81.500 C 77.317 81.500,77.167 81.569,77.167 81.653 C 77.167 81.738,76.942 81.856,76.667 81.917 C 76.392 81.977,76.167 82.096,76.167 82.180 C 76.167 82.264,76.017 82.333,75.833 82.333 C 75.650 82.333,75.500 82.402,75.500 82.487 C 75.500 82.571,75.275 82.690,75.000 82.750 C 74.725 82.810,74.500 82.929,74.500 83.013 C 74.500 83.098,74.387 83.167,74.250 83.167 C 74.112 83.167,74.000 83.235,74.000 83.319 C 74.000 83.402,73.700 83.521,73.333 83.583 C 72.967 83.645,72.667 83.756,72.667 83.829 C 72.667 83.902,72.329 84.013,71.917 84.075 C 71.504 84.136,71.167 84.257,71.167 84.344 C 71.167 84.430,71.017 84.500,70.833 84.500 C 70.650 84.500,70.500 84.566,70.500 84.647 C 70.500 84.728,70.012 84.847,69.417 84.911 C 68.821 84.974,68.333 85.096,68.333 85.180 C 68.333 85.264,67.958 85.333,67.500 85.333 C 67.042 85.333,66.667 85.408,66.667 85.500 C 66.667 85.604,65.639 85.667,63.917 85.667 C 62.194 85.667,61.167 85.604,61.167 85.500 C 61.167 85.408,60.792 85.333,60.333 85.333 C 59.875 85.333,59.500 85.263,59.500 85.177 C 59.500 85.091,59.163 84.970,58.750 84.908 C 58.337 84.846,58.000 84.729,58.000 84.648 C 58.000 84.566,57.813 84.500,57.583 84.500 C 57.354 84.500,57.167 84.435,57.167 84.355 C 57.167 84.275,56.867 84.161,56.500 84.103 C 56.133 84.044,55.833 83.930,55.833 83.850 C 55.833 83.770,55.587 83.658,55.286 83.601 C 54.985 83.545,54.631 83.349,54.499 83.166 C 54.368 82.983,54.161 82.833,54.041 82.833 C 53.921 82.833,53.780 82.721,53.727 82.583 C 53.674 82.446,53.523 82.333,53.391 82.333 C 53.259 82.333,52.977 82.146,52.765 81.917 C 52.552 81.688,52.306 81.500,52.217 81.500 C 52.128 81.500,51.860 81.294,51.621 81.042 C 51.383 80.790,51.089 80.493,50.969 80.383 C 50.848 80.273,50.660 80.085,50.550 79.966 C 50.439 79.847,50.252 79.660,50.133 79.550 C 49.761 79.205,49.500 78.853,49.500 78.697 C 49.500 78.614,49.313 78.406,49.083 78.234 C 48.854 78.062,48.667 77.830,48.667 77.718 C 48.667 77.606,48.482 77.331,48.257 77.105 C 48.031 76.880,47.798 76.501,47.739 76.264 C 47.679 76.027,47.564 75.833,47.482 75.833 C 47.400 75.833,47.333 75.721,47.333 75.583 C 47.333 75.446,47.267 75.333,47.185 75.333 C 47.104 75.333,46.988 75.071,46.928 74.750 C 46.867 74.429,46.748 74.167,46.661 74.167 C 46.575 74.167,46.456 73.867,46.397 73.500 C 46.339 73.133,46.225 72.833,46.145 72.833 C 46.065 72.833,46.000 72.646,46.000 72.417 C 46.000 72.188,45.931 72.000,45.847 72.000 C 45.762 72.000,45.641 71.512,45.577 70.917 C 45.513 70.321,45.395 69.833,45.314 69.833 C 45.233 69.833,45.167 69.233,45.167 68.500 C 45.167 67.722,45.097 67.167,45.000 67.167 C 44.906 67.167,44.833 66.694,44.833 66.083 C 44.833 65.472,44.906 65.000,45.000 65.000 C 45.094 65.000,45.167 64.528,45.167 63.917 C 45.167 63.321,45.233 62.833,45.314 62.833 C 45.395 62.833,45.513 62.346,45.577 61.750 C 45.641 61.154,45.744 60.667,45.806 60.667 C 45.958 60.667,46.301 59.870,46.434 59.207 C 46.493 58.910,46.599 58.667,46.669 58.667 C 46.740 58.667,46.848 58.465,46.910 58.218 C 46.972 57.972,47.157 57.653,47.321 57.510 C 47.485 57.367,47.672 57.081,47.737 56.875 C 47.803 56.669,47.926 56.500,48.011 56.500 C 48.097 56.500,48.167 56.415,48.167 56.311 C 48.167 56.207,48.354 55.948,48.583 55.735 C 48.813 55.523,49.000 55.281,49.000 55.198 C 49.000 54.997,51.810 52.167,52.009 52.167 C 52.094 52.167,52.379 51.942,52.642 51.667 C 52.904 51.392,53.235 51.167,53.375 51.167 C 53.516 51.167,53.674 51.054,53.727 50.917 C 53.780 50.779,53.938 50.667,54.078 50.667 C 54.218 50.667,54.333 50.592,54.333 50.500 C 54.333 50.408,54.475 50.333,54.649 50.333 C 54.822 50.333,55.008 50.221,55.060 50.083 C 55.113 49.946,55.309 49.833,55.495 49.833 C 55.681 49.833,55.833 49.758,55.833 49.667 C 55.833 49.575,55.946 49.500,56.083 49.500 C 56.221 49.500,56.333 49.435,56.333 49.355 C 56.333 49.275,56.633 49.161,57.000 49.103 C 57.367 49.044,57.667 48.930,57.667 48.850 C 57.667 48.770,58.002 48.654,58.413 48.593 C 58.823 48.531,59.203 48.410,59.256 48.324 C 59.309 48.237,59.567 48.167,59.829 48.167 C 60.091 48.167,60.337 48.073,60.375 47.958 C 60.428 47.799,61.437 47.750,64.667 47.750 C 67.896 47.750,68.905 47.799,68.958 47.958 C 69.000 48.083,69.323 48.167,69.764 48.167 C 70.169 48.167,70.500 48.233,70.500 48.314 C 70.500 48.395,70.912 48.513,71.417 48.576 C 71.921 48.639,72.333 48.753,72.333 48.830 C 72.333 48.906,72.708 49.020,73.167 49.083 C 73.625 49.146,74.000 49.266,74.000 49.349 C 74.000 49.432,74.188 49.500,74.417 49.500 C 74.646 49.500,74.833 49.574,74.833 49.665 C 74.833 49.755,75.133 49.877,75.500 49.936 C 75.867 49.995,76.167 50.108,76.167 50.188 C 76.167 50.268,76.279 50.333,76.417 50.333 C 76.554 50.333,76.667 50.405,76.667 50.492 C 76.667 50.580,76.929 50.701,77.250 50.761 C 77.571 50.821,77.833 50.931,77.833 51.005 C 77.833 51.079,78.058 51.190,78.333 51.250 C 78.608 51.310,78.833 51.429,78.833 51.513 C 78.833 51.598,78.946 51.667,79.083 51.667 C 79.221 51.667,79.333 51.732,79.333 51.813 C 79.333 51.893,79.570 52.006,79.860 52.064 C 80.150 52.122,80.492 52.319,80.620 52.501 C 80.748 52.684,80.957 52.833,81.085 52.833 C 81.212 52.833,81.379 52.945,81.456 53.082 C 81.532 53.218,81.948 53.378,82.381 53.438 L 83.167 53.545 83.167 46.273 C 83.167 39.919,83.135 39.000,82.917 39.000 C 82.779 39.000,82.667 38.925,82.667 38.833 C 82.667 38.742,82.554 38.667,82.417 38.667 C 82.279 38.667,82.167 38.596,82.167 38.510 C 82.167 38.424,81.829 38.303,81.417 38.241 C 81.004 38.179,80.667 38.062,80.667 37.981 C 80.667 37.900,80.554 37.833,80.417 37.833 C 80.279 37.833,80.167 37.759,80.167 37.669 C 80.167 37.578,79.867 37.456,79.500 37.397 C 79.133 37.339,78.833 37.232,78.833 37.161 C 78.833 37.090,78.458 36.980,78.000 36.917 C 77.542 36.854,77.167 36.734,77.167 36.651 C 77.167 36.568,77.054 36.500,76.917 36.500 C 76.779 36.500,76.667 36.435,76.667 36.357 C 76.667 36.278,76.273 36.167,75.793 36.110 C 75.312 36.053,74.893 35.930,74.862 35.836 C 74.831 35.743,74.549 35.667,74.236 35.667 C 73.923 35.667,73.667 35.600,73.667 35.520 C 73.667 35.439,73.085 35.318,72.375 35.252 C 71.665 35.186,71.035 35.054,70.976 34.960 C 70.866 34.783,62.588 34.640,60.542 34.779 M119.708 34.779 C 119.135 34.818,118.667 34.911,118.667 34.986 C 118.667 35.062,118.067 35.176,117.333 35.240 C 116.600 35.304,116.000 35.426,116.000 35.511 C 116.000 35.597,115.775 35.667,115.500 35.667 C 115.225 35.667,115.000 35.735,115.000 35.818 C 115.000 35.901,114.625 36.020,114.167 36.083 C 113.708 36.146,113.333 36.266,113.333 36.349 C 113.333 36.432,113.146 36.500,112.917 36.500 C 112.688 36.500,112.500 36.565,112.500 36.645 C 112.500 36.725,112.200 36.839,111.833 36.897 C 111.467 36.956,111.167 37.075,111.167 37.161 C 111.167 37.248,110.904 37.367,110.583 37.428 C 110.263 37.488,110.000 37.604,110.000 37.685 C 110.000 37.767,109.888 37.833,109.750 37.833 C 109.612 37.833,109.500 37.902,109.500 37.987 C 109.500 38.071,109.275 38.190,109.000 38.250 C 108.725 38.310,108.400 38.503,108.277 38.679 C 108.154 38.854,107.821 39.044,107.537 39.101 C 107.254 39.158,106.981 39.308,106.933 39.435 C 106.884 39.563,106.742 39.667,106.619 39.667 C 106.495 39.667,106.230 39.854,106.031 40.083 C 105.832 40.313,105.574 40.500,105.457 40.500 C 105.341 40.500,105.105 40.688,104.933 40.917 C 104.761 41.146,104.499 41.335,104.352 41.338 C 104.204 41.340,103.896 41.601,103.667 41.918 C 103.438 42.234,103.123 42.536,102.967 42.588 C 102.811 42.641,102.639 42.826,102.583 43.000 C 102.528 43.174,102.337 43.363,102.158 43.419 C 101.979 43.476,101.833 43.592,101.833 43.678 C 101.833 43.763,101.729 43.833,101.601 43.833 C 101.474 43.833,101.324 44.016,101.268 44.239 C 101.212 44.462,101.020 44.691,100.841 44.747 C 100.663 44.804,100.472 44.993,100.417 45.167 C 100.361 45.341,100.174 45.528,100.000 45.583 C 99.826 45.639,99.637 45.830,99.581 46.009 C 99.524 46.187,99.408 46.333,99.322 46.333 C 99.237 46.333,99.167 46.435,99.167 46.560 C 99.167 46.685,98.979 46.927,98.750 47.100 C 98.521 47.272,98.333 47.504,98.333 47.615 C 98.333 47.727,98.146 48.006,97.917 48.235 C 97.688 48.464,97.500 48.732,97.500 48.831 C 97.500 48.930,97.388 49.054,97.250 49.106 C 97.112 49.159,97.000 49.344,97.000 49.518 C 97.000 49.691,96.933 49.833,96.851 49.833 C 96.770 49.833,96.656 50.021,96.598 50.250 C 96.541 50.479,96.426 50.667,96.343 50.667 C 96.261 50.667,96.144 50.892,96.083 51.167 C 96.023 51.442,95.904 51.667,95.820 51.667 C 95.736 51.667,95.667 51.779,95.667 51.917 C 95.667 52.054,95.600 52.167,95.519 52.167 C 95.437 52.167,95.321 52.429,95.261 52.750 C 95.201 53.071,95.080 53.333,94.992 53.333 C 94.905 53.333,94.833 53.446,94.833 53.583 C 94.833 53.721,94.759 53.833,94.669 53.833 C 94.578 53.833,94.456 54.133,94.397 54.500 C 94.339 54.867,94.235 55.167,94.167 55.167 C 94.098 55.167,93.995 55.467,93.936 55.833 C 93.877 56.200,93.755 56.500,93.665 56.500 C 93.574 56.500,93.500 56.762,93.500 57.083 C 93.500 57.404,93.431 57.667,93.347 57.667 C 93.262 57.667,93.141 58.154,93.077 58.750 C 93.013 59.346,92.895 59.833,92.814 59.833 C 92.733 59.833,92.667 60.202,92.667 60.653 C 92.667 61.160,92.587 61.499,92.458 61.542 C 92.157 61.642,92.158 71.858,92.460 71.959 C 92.587 72.001,92.667 72.343,92.667 72.847 C 92.667 73.298,92.733 73.667,92.814 73.667 C 92.895 73.667,93.014 74.229,93.078 74.917 C 93.142 75.604,93.264 76.167,93.348 76.167 C 93.431 76.167,93.500 76.317,93.500 76.500 C 93.500 76.683,93.568 76.833,93.651 76.833 C 93.734 76.833,93.854 77.208,93.917 77.667 C 93.980 78.125,94.090 78.500,94.161 78.500 C 94.232 78.500,94.339 78.800,94.397 79.167 C 94.456 79.533,94.578 79.833,94.669 79.833 C 94.759 79.833,94.833 79.983,94.833 80.167 C 94.833 80.350,94.902 80.500,94.985 80.500 C 95.069 80.500,95.188 80.800,95.250 81.167 C 95.312 81.533,95.431 81.833,95.515 81.833 C 95.598 81.833,95.667 81.946,95.667 82.083 C 95.667 82.221,95.734 82.333,95.815 82.333 C 95.897 82.333,96.011 82.521,96.068 82.750 C 96.126 82.979,96.241 83.167,96.323 83.167 C 96.406 83.167,96.523 83.392,96.583 83.667 C 96.644 83.942,96.762 84.167,96.847 84.167 C 96.931 84.167,97.000 84.283,97.000 84.425 C 97.000 84.567,97.188 84.856,97.417 85.069 C 97.646 85.281,97.833 85.513,97.833 85.583 C 97.833 85.654,98.021 85.886,98.250 86.098 C 98.479 86.310,98.667 86.560,98.667 86.653 C 98.667 86.746,98.892 87.052,99.167 87.333 C 99.442 87.615,99.667 87.950,99.667 88.078 C 99.667 88.206,99.813 88.357,99.991 88.414 C 100.170 88.471,100.361 88.659,100.417 88.833 C 100.472 89.007,100.663 89.196,100.842 89.253 C 101.021 89.309,101.167 89.420,101.167 89.498 C 101.167 89.684,102.149 90.667,102.335 90.667 C 102.413 90.667,102.524 90.813,102.581 90.991 C 102.637 91.170,102.826 91.361,103.000 91.417 C 103.174 91.472,103.363 91.663,103.419 91.842 C 103.476 92.021,103.618 92.167,103.736 92.167 C 103.853 92.167,104.122 92.317,104.333 92.500 C 104.545 92.683,104.801 92.833,104.903 92.833 C 105.004 92.833,105.228 93.021,105.400 93.250 C 105.573 93.479,105.799 93.667,105.903 93.667 C 106.008 93.667,106.201 93.816,106.333 93.999 C 106.465 94.182,106.813 94.377,107.108 94.432 C 107.403 94.488,107.684 94.638,107.733 94.766 C 107.783 94.895,107.938 95.000,108.078 95.000 C 108.218 95.000,108.333 95.075,108.333 95.167 C 108.333 95.258,108.483 95.333,108.667 95.333 C 108.850 95.333,109.000 95.402,109.000 95.487 C 109.000 95.571,109.225 95.690,109.500 95.750 C 109.775 95.810,110.000 95.929,110.000 96.013 C 110.000 96.098,110.150 96.167,110.333 96.167 C 110.517 96.167,110.667 96.236,110.667 96.320 C 110.667 96.404,110.892 96.523,111.167 96.583 C 111.442 96.644,111.667 96.755,111.667 96.831 C 111.667 96.907,112.042 97.020,112.500 97.083 C 112.958 97.146,113.333 97.266,113.333 97.349 C 113.333 97.432,113.521 97.500,113.750 97.500 C 113.979 97.500,114.167 97.569,114.167 97.653 C 114.167 97.738,114.654 97.859,115.250 97.923 C 115.846 97.987,116.333 98.105,116.333 98.186 C 116.333 98.267,116.552 98.333,116.819 98.333 C 117.087 98.333,117.331 98.407,117.361 98.498 C 117.393 98.591,118.595 98.711,120.125 98.774 C 121.615 98.835,122.833 98.949,122.833 99.026 C 122.833 99.103,123.696 99.167,124.750 99.167 C 125.804 99.167,126.667 99.103,126.667 99.026 C 126.667 98.948,127.660 98.834,128.875 98.773 C 130.090 98.712,131.108 98.588,131.139 98.497 C 131.169 98.407,131.563 98.333,132.014 98.333 C 132.465 98.333,132.833 98.267,132.833 98.186 C 132.833 98.105,133.321 97.987,133.917 97.923 C 134.512 97.859,135.000 97.738,135.000 97.653 C 135.000 97.569,135.188 97.500,135.417 97.500 C 135.646 97.500,135.833 97.432,135.833 97.349 C 135.833 97.266,136.208 97.146,136.667 97.083 C 137.125 97.020,137.500 96.902,137.500 96.820 C 137.500 96.738,137.800 96.623,138.167 96.564 C 138.533 96.505,138.833 96.392,138.833 96.312 C 138.833 96.232,138.946 96.167,139.083 96.167 C 139.221 96.167,139.333 96.095,139.333 96.008 C 139.333 95.920,139.596 95.799,139.917 95.739 C 140.237 95.679,140.500 95.563,140.500 95.481 C 140.500 95.400,140.612 95.333,140.750 95.333 C 140.887 95.333,141.000 95.264,141.000 95.180 C 141.000 95.096,141.225 94.977,141.500 94.917 C 141.775 94.856,142.000 94.738,142.000 94.653 C 142.000 94.569,142.152 94.500,142.339 94.500 C 142.525 94.500,142.720 94.388,142.773 94.250 C 142.826 94.112,143.011 94.000,143.184 94.000 C 143.358 94.000,143.500 93.925,143.500 93.833 C 143.500 93.742,143.602 93.667,143.727 93.667 C 143.851 93.667,144.094 93.479,144.266 93.250 C 144.438 93.021,144.668 92.833,144.778 92.833 C 144.887 92.833,145.079 92.731,145.204 92.605 C 145.330 92.480,145.594 92.326,145.791 92.263 C 145.988 92.201,146.196 92.003,146.253 91.825 C 146.309 91.646,146.469 91.500,146.608 91.500 C 146.933 91.500,151.257 87.171,151.408 86.694 C 151.471 86.496,151.581 86.333,151.654 86.333 C 151.852 86.333,152.667 85.540,152.667 85.347 C 152.667 85.138,151.732 84.167,151.531 84.167 C 151.450 84.167,151.211 84.017,151.000 83.833 C 150.789 83.650,150.520 83.500,150.402 83.500 C 150.285 83.500,150.143 83.354,150.086 83.175 C 150.029 82.997,149.824 82.800,149.631 82.739 C 149.437 82.677,149.100 82.448,148.882 82.230 C 148.663 82.012,148.405 81.833,148.308 81.833 C 148.211 81.833,147.984 81.646,147.804 81.417 C 147.623 81.188,147.401 81.000,147.309 81.000 C 147.218 81.000,147.038 80.906,146.911 80.792 C 146.415 80.347,146.177 80.167,146.087 80.167 C 146.036 80.167,145.749 79.914,145.450 79.606 C 145.150 79.298,144.746 78.995,144.551 78.933 C 144.357 78.871,144.155 78.711,144.104 78.577 C 144.053 78.443,143.896 78.333,143.755 78.333 C 143.615 78.333,143.500 78.258,143.500 78.167 C 143.500 77.931,142.868 77.959,142.571 78.208 C 141.781 78.872,141.000 79.758,141.000 79.993 C 141.000 80.089,140.922 80.167,140.826 80.167 C 140.615 80.167,140.407 80.337,139.255 81.458 C 138.760 81.940,138.275 82.333,138.178 82.333 C 138.080 82.333,138.000 82.407,138.000 82.497 C 138.000 82.587,137.827 82.704,137.615 82.757 C 137.404 82.810,137.093 83.036,136.925 83.260 C 136.757 83.484,136.518 83.667,136.393 83.667 C 136.269 83.667,136.167 83.732,136.167 83.813 C 136.167 83.893,135.932 84.005,135.644 84.063 C 135.357 84.120,134.997 84.311,134.845 84.486 C 134.693 84.662,134.291 84.858,133.951 84.921 C 133.611 84.985,133.333 85.104,133.333 85.185 C 133.333 85.267,133.221 85.333,133.083 85.333 C 132.946 85.333,132.833 85.401,132.833 85.484 C 132.833 85.567,132.458 85.687,132.000 85.750 C 131.542 85.813,131.167 85.928,131.167 86.006 C 131.167 86.083,130.642 86.198,130.000 86.261 C 129.358 86.325,128.833 86.442,128.833 86.522 C 128.833 86.601,128.458 86.667,128.000 86.667 C 127.542 86.667,127.167 86.742,127.167 86.833 C 127.167 86.936,126.333 87.000,125.000 87.000 C 123.667 87.000,122.833 86.936,122.833 86.833 C 122.833 86.741,122.389 86.667,121.833 86.667 C 121.283 86.667,120.833 86.602,120.833 86.524 C 120.833 86.445,120.369 86.332,119.801 86.273 C 119.233 86.214,118.727 86.102,118.676 86.025 C 118.625 85.948,118.284 85.838,117.918 85.780 C 117.552 85.722,117.227 85.598,117.196 85.504 C 117.164 85.410,116.958 85.333,116.736 85.333 C 116.515 85.333,116.333 85.267,116.333 85.185 C 116.333 85.104,116.071 84.988,115.750 84.928 C 115.429 84.867,115.167 84.747,115.167 84.659 C 115.167 84.572,115.054 84.500,114.917 84.500 C 114.779 84.500,114.667 84.433,114.667 84.351 C 114.667 84.270,114.479 84.156,114.250 84.098 C 114.021 84.041,113.833 83.926,113.833 83.843 C 113.833 83.761,113.623 83.647,113.366 83.590 C 113.109 83.534,112.792 83.340,112.662 83.161 C 112.533 82.981,112.331 82.833,112.215 82.833 C 112.098 82.833,111.788 82.608,111.525 82.333 C 111.262 82.058,110.924 81.833,110.774 81.833 C 110.623 81.833,110.500 81.764,110.500 81.679 C 110.500 81.486,109.524 80.500,109.332 80.500 C 109.253 80.500,109.136 80.334,109.072 80.131 C 109.008 79.928,108.700 79.515,108.390 79.213 C 108.079 78.911,107.780 78.442,107.726 78.170 C 107.671 77.899,107.494 77.634,107.331 77.583 C 107.156 77.527,106.991 77.252,106.927 76.911 C 106.867 76.593,106.747 76.333,106.659 76.333 C 106.572 76.333,106.500 76.221,106.500 76.083 C 106.500 75.946,106.426 75.833,106.335 75.833 C 106.245 75.833,106.123 75.533,106.064 75.167 C 106.005 74.800,105.893 74.500,105.814 74.500 C 105.735 74.500,105.623 74.200,105.564 73.833 C 105.505 73.467,105.392 73.167,105.312 73.167 C 105.232 73.167,105.167 72.910,105.167 72.597 C 105.167 72.284,105.092 72.003,105.002 71.972 C 104.911 71.942,104.788 71.448,104.728 70.875 C 104.668 70.302,104.555 69.833,104.476 69.833 C 104.398 69.833,104.333 69.758,104.333 69.667 C 104.333 69.556,113.036 69.500,130.109 69.500 L 155.885 69.500 155.789 65.643 C 155.736 63.520,155.622 61.740,155.535 61.685 C 155.448 61.629,155.324 61.077,155.259 60.458 C 155.194 59.840,155.071 59.333,154.987 59.333 C 154.902 59.333,154.833 59.071,154.833 58.750 C 154.833 58.429,154.767 58.167,154.686 58.167 C 154.605 58.167,154.487 57.754,154.424 57.250 C 154.361 56.746,154.240 56.333,154.155 56.333 C 154.070 56.333,154.000 56.146,154.000 55.917 C 154.000 55.688,153.935 55.500,153.855 55.500 C 153.775 55.500,153.661 55.200,153.603 54.833 C 153.544 54.467,153.422 54.167,153.331 54.167 C 153.241 54.167,153.167 54.017,153.167 53.833 C 153.167 53.650,153.098 53.500,153.015 53.500 C 152.931 53.500,152.812 53.200,152.750 52.833 C 152.688 52.467,152.577 52.167,152.503 52.167 C 152.430 52.167,152.319 51.965,152.257 51.718 C 152.195 51.472,152.004 51.148,151.833 51.000 C 151.662 50.852,151.472 50.528,151.410 50.282 C 151.348 50.035,151.230 49.833,151.149 49.833 C 151.067 49.833,151.000 49.691,151.000 49.518 C 151.000 49.344,150.887 49.159,150.750 49.106 C 150.612 49.054,150.500 48.928,150.500 48.827 C 150.500 48.726,150.406 48.538,150.292 48.411 C 149.797 47.859,149.667 47.671,149.667 47.507 C 149.667 47.411,149.593 47.333,149.503 47.333 C 149.413 47.333,149.293 47.149,149.237 46.923 C 149.180 46.697,148.991 46.467,148.817 46.411 C 148.643 46.356,148.500 46.244,148.500 46.163 C 148.500 46.082,148.162 45.683,147.750 45.276 C 147.337 44.869,147.000 44.488,147.000 44.427 C 147.000 44.284,146.214 43.500,146.071 43.500 C 146.010 43.500,145.483 43.012,144.898 42.417 C 144.314 41.821,143.761 41.333,143.670 41.333 C 143.578 41.333,143.288 41.108,143.025 40.833 C 142.762 40.558,142.429 40.333,142.285 40.333 C 142.141 40.333,141.975 40.183,141.917 40.000 C 141.858 39.816,141.664 39.667,141.484 39.667 C 141.304 39.667,141.116 39.561,141.066 39.432 C 141.016 39.302,140.794 39.151,140.571 39.095 C 140.349 39.039,140.167 38.920,140.167 38.830 C 140.167 38.740,140.054 38.667,139.917 38.667 C 139.779 38.667,139.667 38.600,139.667 38.519 C 139.667 38.437,139.404 38.321,139.083 38.261 C 138.762 38.201,138.500 38.080,138.500 37.992 C 138.500 37.905,138.387 37.833,138.250 37.833 C 138.112 37.833,138.000 37.762,138.000 37.674 C 138.000 37.587,137.737 37.466,137.417 37.406 C 137.096 37.345,136.833 37.230,136.833 37.150 C 136.833 37.070,136.533 36.956,136.167 36.897 C 135.800 36.839,135.500 36.725,135.500 36.645 C 135.500 36.565,135.387 36.500,135.250 36.500 C 135.112 36.500,135.000 36.432,135.000 36.349 C 135.000 36.266,134.625 36.146,134.167 36.083 C 133.708 36.020,133.333 35.901,133.333 35.818 C 133.333 35.735,133.115 35.667,132.847 35.667 C 132.580 35.667,132.336 35.596,132.306 35.510 C 132.275 35.423,131.650 35.300,130.917 35.235 C 130.183 35.171,129.534 35.041,129.473 34.948 C 129.360 34.774,121.742 34.642,119.708 34.779 M197.375 34.777 C 196.985 34.818,196.667 34.913,196.667 34.986 C 196.667 35.059,196.198 35.168,195.625 35.228 C 195.052 35.288,194.558 35.411,194.528 35.502 C 194.497 35.592,194.291 35.667,194.069 35.667 C 193.848 35.667,193.667 35.732,193.667 35.812 C 193.667 35.892,193.367 36.005,193.000 36.064 C 192.633 36.123,192.333 36.245,192.333 36.335 C 192.333 36.426,192.191 36.500,192.018 36.500 C 191.844 36.500,191.659 36.612,191.606 36.750 C 191.554 36.887,191.358 37.000,191.172 37.000 C 190.986 37.000,190.833 37.067,190.833 37.149 C 190.833 37.230,190.632 37.348,190.385 37.410 C 190.138 37.472,189.819 37.657,189.677 37.821 C 189.534 37.985,189.252 38.171,189.050 38.235 C 188.849 38.298,188.637 38.497,188.581 38.675 C 188.524 38.854,188.373 39.000,188.245 39.000 C 188.116 39.000,187.781 39.225,187.500 39.500 C 187.219 39.775,186.897 40.003,186.786 40.008 C 186.674 40.012,186.433 40.206,186.250 40.440 C 186.067 40.673,185.819 40.951,185.701 41.057 C 185.582 41.163,185.159 41.569,184.761 41.958 C 184.362 42.348,183.987 42.667,183.927 42.667 C 183.785 42.667,182.167 44.284,182.167 44.425 C 182.167 44.561,181.068 45.667,180.933 45.667 C 180.878 45.667,180.833 43.529,180.833 40.917 L 180.833 36.167 174.333 36.167 L 167.833 36.167 167.833 66.833 L 167.833 97.500 174.262 97.500 C 179.540 97.500,180.732 97.458,180.923 97.267 C 181.119 97.072,181.163 94.065,181.203 78.323 C 181.240 63.535,181.294 59.596,181.458 59.542 C 181.573 59.503,181.667 59.253,181.667 58.986 C 181.667 58.719,181.732 58.500,181.812 58.500 C 181.891 58.500,181.997 58.146,182.045 57.714 C 182.094 57.281,182.216 56.900,182.317 56.867 C 182.418 56.833,182.500 56.624,182.500 56.403 C 182.500 56.181,182.569 56.000,182.653 56.000 C 182.738 56.000,182.856 55.775,182.917 55.500 C 182.977 55.225,183.087 55.000,183.161 55.000 C 183.236 55.000,183.342 54.754,183.399 54.453 C 183.455 54.152,183.651 53.798,183.834 53.666 C 184.017 53.534,184.167 53.328,184.167 53.208 C 184.167 53.088,184.279 52.946,184.417 52.894 C 184.554 52.841,184.667 52.692,184.667 52.562 C 184.667 52.432,185.079 51.926,185.583 51.438 C 186.088 50.950,186.500 50.426,186.500 50.275 C 186.500 50.124,186.621 50.000,186.768 50.000 C 186.916 50.000,187.369 49.663,187.776 49.250 C 188.183 48.837,188.608 48.500,188.721 48.500 C 188.834 48.500,189.033 48.353,189.162 48.173 C 189.292 47.993,189.609 47.799,189.866 47.743 C 190.123 47.686,190.333 47.571,190.333 47.487 C 190.333 47.402,190.446 47.333,190.583 47.333 C 190.721 47.333,190.833 47.263,190.833 47.177 C 190.833 47.091,191.171 46.970,191.583 46.908 C 191.996 46.846,192.333 46.729,192.333 46.648 C 192.333 46.566,192.477 46.500,192.653 46.500 C 192.828 46.500,193.003 46.406,193.042 46.292 C 193.142 45.991,199.525 45.991,199.625 46.292 C 199.663 46.406,199.838 46.500,200.014 46.500 C 200.190 46.500,200.333 46.566,200.333 46.648 C 200.333 46.729,200.667 46.846,201.075 46.907 C 201.587 46.983,201.847 47.113,201.914 47.326 C 201.968 47.495,202.197 47.680,202.423 47.737 C 202.649 47.793,202.833 47.913,202.833 48.003 C 202.833 48.093,202.931 48.167,203.051 48.167 C 203.365 48.167,205.333 50.107,205.333 50.417 C 205.333 50.560,205.446 50.720,205.583 50.773 C 205.721 50.826,205.833 50.973,205.833 51.101 C 205.833 51.229,205.900 51.333,205.981 51.333 C 206.063 51.333,206.179 51.596,206.239 51.917 C 206.299 52.237,206.420 52.500,206.508 52.500 C 206.595 52.500,206.667 52.606,206.667 52.736 C 206.667 52.866,206.745 52.998,206.840 53.030 C 206.935 53.062,207.058 53.630,207.114 54.294 C 207.170 54.957,207.279 55.500,207.358 55.500 C 207.436 55.500,207.500 64.950,207.500 76.500 L 207.500 97.500 214.167 97.500 L 220.833 97.500 220.833 74.167 C 220.833 58.722,220.777 50.833,220.667 50.833 C 220.575 50.833,220.500 50.458,220.500 50.000 C 220.500 49.542,220.434 49.167,220.353 49.167 C 220.271 49.167,220.154 48.754,220.091 48.250 C 220.028 47.746,219.906 47.333,219.821 47.333 C 219.736 47.333,219.667 47.146,219.667 46.917 C 219.667 46.688,219.598 46.500,219.513 46.500 C 219.429 46.500,219.310 46.275,219.250 46.000 C 219.190 45.725,219.079 45.500,219.005 45.500 C 218.931 45.500,218.822 45.242,218.763 44.926 C 218.695 44.562,218.535 44.314,218.328 44.248 C 218.147 44.191,218.000 43.997,218.000 43.817 C 218.000 43.637,217.887 43.446,217.750 43.394 C 217.612 43.341,217.500 43.192,217.500 43.063 C 217.500 42.933,217.237 42.573,216.917 42.261 C 216.596 41.949,216.333 41.611,216.333 41.509 C 216.333 41.406,216.224 41.281,216.090 41.229 C 215.956 41.178,215.802 40.997,215.748 40.826 C 215.694 40.656,215.507 40.472,215.333 40.417 C 215.159 40.361,214.972 40.174,214.917 40.000 C 214.861 39.826,214.651 39.632,214.450 39.569 C 214.248 39.505,213.854 39.211,213.573 38.915 C 213.292 38.618,212.898 38.323,212.698 38.260 C 212.497 38.196,212.333 38.074,212.333 37.989 C 212.333 37.903,212.221 37.833,212.083 37.833 C 211.946 37.833,211.833 37.760,211.833 37.670 C 211.833 37.580,211.646 37.459,211.417 37.402 C 211.188 37.344,211.000 37.234,211.000 37.156 C 211.000 37.079,210.737 36.966,210.417 36.906 C 210.096 36.845,209.833 36.730,209.833 36.648 C 209.833 36.567,209.721 36.500,209.583 36.500 C 209.446 36.500,209.333 36.426,209.333 36.335 C 209.333 36.245,209.033 36.123,208.667 36.064 C 208.300 36.005,208.000 35.892,208.000 35.812 C 208.000 35.732,207.813 35.667,207.583 35.667 C 207.354 35.667,207.167 35.599,207.167 35.516 C 207.167 35.433,206.773 35.311,206.292 35.245 C 205.810 35.180,205.371 35.054,205.315 34.966 C 205.209 34.798,198.634 34.642,197.375 34.777 M290.708 34.779 C 290.135 34.817,289.667 34.910,289.667 34.984 C 289.667 35.058,289.198 35.168,288.625 35.228 C 288.052 35.288,287.558 35.411,287.528 35.502 C 287.497 35.592,287.253 35.667,286.986 35.667 C 286.719 35.667,286.500 35.737,286.500 35.823 C 286.500 35.909,286.162 36.030,285.750 36.092 C 285.337 36.154,285.000 36.271,285.000 36.352 C 285.000 36.434,284.887 36.500,284.750 36.500 C 284.612 36.500,284.500 36.569,284.500 36.653 C 284.500 36.738,284.275 36.856,284.000 36.917 C 283.725 36.977,283.500 37.096,283.500 37.180 C 283.500 37.264,283.348 37.333,283.161 37.333 C 282.975 37.333,282.780 37.446,282.727 37.583 C 282.674 37.721,282.527 37.833,282.399 37.833 C 282.271 37.833,282.167 37.903,282.167 37.989 C 282.167 38.074,282.001 38.197,281.797 38.261 C 281.594 38.326,281.183 38.631,280.884 38.939 C 280.584 39.248,280.266 39.500,280.178 39.500 C 279.967 39.500,278.333 41.133,278.333 41.344 C 278.333 41.433,278.081 41.751,277.773 42.050 C 277.464 42.350,277.159 42.761,277.095 42.964 C 277.030 43.167,276.908 43.333,276.822 43.333 C 276.737 43.333,276.667 43.446,276.667 43.583 C 276.667 43.721,276.600 43.833,276.518 43.833 C 276.436 43.833,276.322 44.021,276.265 44.250 C 276.207 44.479,276.087 44.667,275.997 44.667 C 275.907 44.667,275.833 44.779,275.833 44.917 C 275.833 45.054,275.765 45.167,275.682 45.167 C 275.599 45.167,275.480 45.542,275.417 46.000 C 275.354 46.458,275.239 46.833,275.163 46.833 C 275.087 46.833,274.972 47.246,274.909 47.750 C 274.846 48.254,274.729 48.667,274.647 48.667 C 274.566 48.667,274.500 49.117,274.500 49.667 C 274.500 50.222,274.426 50.667,274.333 50.667 C 274.232 50.667,274.167 51.389,274.167 52.500 C 274.167 53.611,274.232 54.333,274.333 54.333 C 274.425 54.333,274.500 54.708,274.500 55.167 C 274.500 55.625,274.565 56.000,274.643 56.000 C 274.722 56.000,274.833 56.388,274.889 56.862 C 274.945 57.337,275.059 57.768,275.141 57.821 C 275.224 57.874,275.348 58.177,275.417 58.495 C 275.550 59.108,275.784 59.592,276.125 59.964 C 276.240 60.088,276.333 60.298,276.333 60.429 C 276.333 60.560,276.408 60.667,276.500 60.667 C 276.592 60.667,276.667 60.752,276.667 60.855 C 276.667 60.959,276.929 61.292,277.250 61.594 C 277.571 61.897,277.833 62.217,277.833 62.305 C 277.833 62.526,279.456 64.167,279.674 64.167 C 279.770 64.167,280.014 64.344,280.216 64.560 C 280.418 64.777,280.748 65.005,280.950 65.069 C 281.151 65.132,281.363 65.330,281.419 65.509 C 281.476 65.687,281.664 65.833,281.836 65.833 C 282.009 65.833,282.210 65.931,282.283 66.051 C 282.357 66.170,282.698 66.399,283.042 66.558 C 283.385 66.718,283.667 66.912,283.667 66.989 C 283.667 67.066,283.929 67.179,284.250 67.239 C 284.571 67.299,284.833 67.420,284.833 67.508 C 284.833 67.595,284.946 67.667,285.083 67.667 C 285.221 67.667,285.333 67.738,285.333 67.826 C 285.333 67.913,285.596 68.034,285.917 68.094 C 286.237 68.155,286.500 68.270,286.500 68.352 C 286.500 68.433,286.612 68.500,286.750 68.500 C 286.887 68.500,287.000 68.569,287.000 68.653 C 287.000 68.738,287.225 68.856,287.500 68.917 C 287.775 68.977,288.000 69.087,288.000 69.161 C 288.000 69.235,288.337 69.346,288.750 69.408 C 289.162 69.470,289.500 69.591,289.500 69.677 C 289.500 69.763,289.612 69.833,289.750 69.833 C 289.887 69.833,290.000 69.907,290.000 69.998 C 290.000 70.089,290.300 70.211,290.667 70.269 C 291.033 70.328,291.333 70.441,291.333 70.521 C 291.333 70.601,291.446 70.667,291.583 70.667 C 291.721 70.667,291.833 70.732,291.833 70.812 C 291.833 70.892,292.133 71.005,292.500 71.064 C 292.867 71.123,293.167 71.235,293.167 71.314 C 293.167 71.393,293.467 71.505,293.833 71.564 C 294.200 71.623,294.500 71.745,294.500 71.835 C 294.500 71.926,294.650 72.000,294.833 72.000 C 295.017 72.000,295.167 72.069,295.167 72.153 C 295.167 72.238,295.392 72.356,295.667 72.417 C 295.942 72.477,296.167 72.578,296.167 72.641 C 296.167 72.765,297.399 73.333,297.668 73.333 C 297.759 73.333,297.833 73.400,297.833 73.481 C 297.833 73.562,297.965 73.672,298.125 73.726 C 298.459 73.838,298.965 74.154,299.297 74.458 C 299.422 74.573,299.595 74.667,299.683 74.667 C 299.909 74.667,301.833 76.663,301.833 76.898 C 301.833 77.005,301.981 77.199,302.161 77.329 C 302.340 77.459,302.534 77.775,302.590 78.032 C 302.647 78.290,302.762 78.500,302.847 78.500 C 302.931 78.500,303.000 78.794,303.000 79.153 C 303.000 79.512,303.094 79.849,303.208 79.903 C 303.375 79.981,303.375 80.019,303.208 80.097 C 303.094 80.151,303.000 80.488,303.000 80.847 C 303.000 81.206,302.928 81.500,302.841 81.500 C 302.753 81.500,302.633 81.760,302.573 82.078 C 302.506 82.436,302.345 82.693,302.149 82.756 C 301.975 82.811,301.833 82.974,301.833 83.119 C 301.833 83.410,300.787 84.500,300.508 84.500 C 300.412 84.500,300.333 84.570,300.333 84.655 C 300.333 84.741,300.165 84.864,299.958 84.929 C 299.752 84.994,299.466 85.182,299.323 85.346 C 299.181 85.510,298.862 85.695,298.615 85.757 C 298.368 85.819,298.167 85.929,298.167 86.002 C 298.167 86.076,297.792 86.187,297.333 86.250 C 296.875 86.313,296.500 86.433,296.500 86.516 C 296.500 86.599,296.200 86.667,295.833 86.667 C 295.467 86.667,295.167 86.742,295.167 86.833 C 295.167 86.933,294.500 87.000,293.500 87.000 C 292.500 87.000,291.833 86.933,291.833 86.833 C 291.833 86.742,291.533 86.667,291.167 86.667 C 290.800 86.667,290.500 86.599,290.500 86.516 C 290.500 86.433,290.125 86.313,289.667 86.250 C 289.208 86.187,288.833 86.073,288.833 85.998 C 288.833 85.922,288.608 85.810,288.333 85.750 C 288.058 85.690,287.833 85.571,287.833 85.487 C 287.833 85.402,287.683 85.333,287.500 85.333 C 287.317 85.333,287.167 85.266,287.167 85.185 C 287.167 85.103,286.965 84.985,286.718 84.924 C 286.472 84.862,286.153 84.677,286.010 84.513 C 285.867 84.349,285.581 84.161,285.375 84.096 C 285.169 84.031,285.000 83.905,285.000 83.817 C 285.000 83.729,284.869 83.606,284.708 83.544 C 284.548 83.483,284.050 83.066,283.603 82.619 C 282.800 81.816,281.742 81.593,281.528 82.181 C 281.497 82.265,281.366 82.333,281.236 82.333 C 281.106 82.333,281.000 82.399,281.000 82.479 C 281.000 82.559,280.700 82.672,280.333 82.731 C 279.967 82.789,279.667 82.911,279.667 83.002 C 279.667 83.093,279.554 83.167,279.417 83.167 C 279.279 83.167,279.167 83.233,279.167 83.315 C 279.167 83.396,278.904 83.512,278.583 83.572 C 278.262 83.633,278.000 83.747,278.000 83.828 C 278.000 83.908,277.775 84.023,277.500 84.083 C 277.225 84.144,277.000 84.262,277.000 84.347 C 277.000 84.431,276.850 84.500,276.667 84.500 C 276.483 84.500,276.333 84.569,276.333 84.653 C 276.333 84.738,276.108 84.856,275.833 84.917 C 275.558 84.977,275.333 85.096,275.333 85.180 C 275.333 85.264,275.221 85.333,275.083 85.333 C 274.946 85.333,274.833 85.400,274.833 85.481 C 274.833 85.563,274.571 85.679,274.250 85.739 C 273.929 85.799,273.667 85.914,273.667 85.994 C 273.667 86.075,273.442 86.190,273.167 86.250 C 272.892 86.310,272.667 86.429,272.667 86.513 C 272.667 86.598,272.517 86.667,272.333 86.667 C 271.885 86.667,271.914 86.929,272.417 87.432 C 272.646 87.661,272.833 87.924,272.833 88.016 C 272.833 88.107,273.021 88.356,273.250 88.569 C 273.479 88.781,273.667 89.012,273.667 89.082 C 273.667 89.153,274.079 89.619,274.583 90.119 C 275.087 90.620,275.500 91.100,275.500 91.188 C 275.500 91.404,276.764 92.667,276.980 92.667 C 277.076 92.667,277.451 92.967,277.814 93.333 C 278.177 93.700,278.527 94.000,278.593 94.000 C 278.658 94.000,278.886 94.188,279.098 94.417 C 279.310 94.646,279.603 94.833,279.747 94.833 C 279.892 94.833,280.054 94.946,280.106 95.083 C 280.159 95.221,280.307 95.333,280.434 95.333 C 280.562 95.333,280.667 95.407,280.667 95.497 C 280.667 95.587,280.854 95.707,281.083 95.765 C 281.313 95.822,281.500 95.936,281.500 96.018 C 281.500 96.100,281.650 96.167,281.833 96.167 C 282.017 96.167,282.167 96.236,282.167 96.320 C 282.167 96.404,282.392 96.523,282.667 96.583 C 282.942 96.644,283.167 96.759,283.167 96.839 C 283.167 96.919,283.429 97.034,283.750 97.094 C 284.071 97.155,284.333 97.270,284.333 97.352 C 284.333 97.433,284.483 97.500,284.667 97.500 C 284.850 97.500,285.000 97.568,285.000 97.651 C 285.000 97.734,285.375 97.854,285.833 97.917 C 286.292 97.980,286.667 98.099,286.667 98.182 C 286.667 98.265,286.960 98.333,287.319 98.333 C 287.678 98.333,287.998 98.411,288.030 98.506 C 288.063 98.606,289.042 98.721,290.377 98.781 C 291.636 98.838,292.667 98.948,292.667 99.026 C 292.667 99.103,293.267 99.167,294.000 99.167 C 294.733 99.167,295.333 99.103,295.333 99.025 C 295.333 98.947,296.102 98.833,297.042 98.772 C 297.981 98.710,298.775 98.587,298.806 98.497 C 298.836 98.407,299.117 98.333,299.431 98.333 C 299.744 98.333,300.000 98.265,300.000 98.182 C 300.000 98.099,300.375 97.980,300.833 97.917 C 301.292 97.854,301.667 97.734,301.667 97.651 C 301.667 97.568,301.779 97.500,301.917 97.500 C 302.054 97.500,302.167 97.428,302.167 97.341 C 302.167 97.253,302.446 97.129,302.787 97.065 C 303.129 97.001,303.509 96.848,303.633 96.724 C 303.756 96.601,303.964 96.500,304.095 96.500 C 304.226 96.500,304.333 96.425,304.333 96.333 C 304.333 96.242,304.446 96.167,304.583 96.167 C 304.721 96.167,304.833 96.097,304.833 96.011 C 304.833 95.926,305.002 95.803,305.208 95.737 C 305.415 95.672,305.696 95.490,305.833 95.333 C 305.971 95.176,306.245 94.997,306.443 94.934 C 306.641 94.872,306.845 94.711,306.896 94.577 C 306.947 94.443,307.142 94.333,307.328 94.333 C 307.514 94.333,307.667 94.263,307.667 94.178 C 307.667 94.092,308.098 93.603,308.625 93.091 C 310.295 91.469,310.833 90.897,310.833 90.740 C 310.833 90.675,311.021 90.448,311.250 90.235 C 311.479 90.023,311.667 89.741,311.667 89.609 C 311.667 89.477,311.779 89.326,311.917 89.273 C 312.054 89.220,312.167 89.025,312.167 88.839 C 312.167 88.652,312.242 88.500,312.333 88.500 C 312.425 88.500,312.500 88.388,312.500 88.250 C 312.500 88.112,312.575 88.000,312.667 88.000 C 312.758 88.000,312.833 87.893,312.833 87.762 C 312.833 87.631,312.934 87.423,313.058 87.299 C 313.181 87.176,313.335 86.796,313.399 86.454 C 313.463 86.113,313.587 85.833,313.674 85.833 C 313.762 85.833,313.833 85.646,313.833 85.417 C 313.833 85.188,313.904 85.000,313.990 85.000 C 314.076 85.000,314.198 84.475,314.261 83.833 C 314.325 83.192,314.442 82.667,314.522 82.667 C 314.601 82.667,314.667 81.429,314.667 79.917 C 314.667 78.404,314.603 77.167,314.524 77.167 C 314.446 77.167,314.336 76.624,314.281 75.960 C 314.225 75.297,314.102 74.728,314.006 74.697 C 313.911 74.665,313.833 74.495,313.833 74.319 C 313.833 74.144,313.767 74.000,313.686 74.000 C 313.604 74.000,313.487 73.662,313.425 73.250 C 313.364 72.837,313.248 72.500,313.170 72.500 C 313.091 72.500,312.977 72.275,312.917 72.000 C 312.856 71.725,312.738 71.500,312.653 71.500 C 312.569 71.500,312.500 71.387,312.500 71.250 C 312.500 71.112,312.430 71.000,312.345 71.000 C 312.259 71.000,312.138 70.838,312.075 70.639 C 312.012 70.441,311.782 70.100,311.563 69.882 C 311.345 69.663,311.167 69.381,311.167 69.254 C 311.167 69.126,311.017 68.975,310.833 68.917 C 310.650 68.858,310.500 68.749,310.500 68.672 C 310.500 68.438,308.850 66.833,308.609 66.833 C 308.485 66.833,308.211 66.608,308.000 66.333 C 307.789 66.058,307.483 65.833,307.320 65.833 C 307.156 65.833,306.975 65.684,306.917 65.500 C 306.859 65.317,306.629 65.122,306.406 65.066 C 306.183 65.010,306.000 64.905,306.000 64.833 C 306.000 64.762,305.813 64.656,305.583 64.598 C 305.354 64.541,305.167 64.420,305.167 64.330 C 305.167 64.240,305.054 64.167,304.917 64.167 C 304.779 64.167,304.667 64.097,304.667 64.011 C 304.667 63.926,304.498 63.803,304.292 63.739 C 304.085 63.674,303.879 63.572,303.833 63.511 C 303.717 63.356,302.573 62.833,302.350 62.833 C 302.249 62.833,302.167 62.764,302.167 62.680 C 302.167 62.596,301.942 62.477,301.667 62.417 C 301.392 62.356,301.167 62.238,301.167 62.153 C 301.167 62.069,301.017 62.000,300.833 62.000 C 300.650 62.000,300.500 61.931,300.500 61.847 C 300.500 61.762,300.275 61.644,300.000 61.583 C 299.725 61.523,299.500 61.404,299.500 61.320 C 299.500 61.236,299.350 61.167,299.167 61.167 C 298.983 61.167,298.833 61.093,298.833 61.002 C 298.833 60.911,298.533 60.789,298.167 60.731 C 297.800 60.672,297.500 60.560,297.500 60.481 C 297.500 60.402,297.200 60.289,296.833 60.231 C 296.467 60.172,296.167 60.059,296.167 59.979 C 296.167 59.899,296.054 59.833,295.917 59.833 C 295.779 59.833,295.667 59.768,295.667 59.688 C 295.667 59.608,295.367 59.495,295.000 59.436 C 294.633 59.377,294.333 59.273,294.333 59.204 C 294.333 59.072,293.115 58.500,292.832 58.500 C 292.741 58.500,292.667 58.425,292.667 58.333 C 292.667 58.242,292.477 58.167,292.245 58.167 C 292.013 58.167,291.780 58.054,291.727 57.917 C 291.674 57.779,291.489 57.667,291.316 57.667 C 291.142 57.667,291.000 57.600,291.000 57.518 C 291.000 57.436,290.813 57.322,290.583 57.265 C 290.354 57.207,290.167 57.087,290.167 56.997 C 290.167 56.907,290.054 56.833,289.917 56.833 C 289.779 56.833,289.667 56.763,289.667 56.678 C 289.667 56.592,289.520 56.476,289.341 56.419 C 288.913 56.283,287.000 54.378,287.000 54.087 C 287.000 53.963,286.906 53.830,286.792 53.792 C 286.641 53.742,286.583 53.196,286.583 51.833 C 286.583 50.470,286.641 49.925,286.792 49.875 C 286.906 49.837,287.000 49.693,287.000 49.555 C 287.000 49.205,288.420 47.860,288.921 47.734 C 289.148 47.677,289.333 47.564,289.333 47.482 C 289.333 47.400,289.515 47.333,289.736 47.333 C 289.958 47.333,290.170 47.240,290.208 47.125 C 290.261 46.967,291.137 46.917,293.833 46.917 C 296.530 46.917,297.406 46.967,297.458 47.125 C 297.497 47.240,297.709 47.333,297.931 47.333 C 298.152 47.333,298.333 47.400,298.333 47.481 C 298.333 47.563,298.596 47.679,298.917 47.739 C 299.237 47.799,299.500 47.920,299.500 48.008 C 299.500 48.095,299.612 48.167,299.750 48.167 C 299.887 48.167,300.000 48.238,300.000 48.326 C 300.000 48.413,300.257 48.533,300.572 48.592 C 300.886 48.651,301.184 48.805,301.233 48.933 C 301.283 49.062,301.438 49.167,301.578 49.167 C 301.718 49.167,301.833 49.242,301.833 49.333 C 301.833 49.425,301.975 49.500,302.149 49.500 C 302.322 49.500,302.508 49.612,302.560 49.750 C 302.613 49.887,302.804 50.000,302.984 50.000 C 303.164 50.000,303.358 50.149,303.417 50.333 C 303.475 50.517,303.625 50.667,303.749 50.667 C 303.874 50.667,304.093 50.784,304.236 50.927 C 304.761 51.451,305.555 51.419,306.124 50.850 C 306.408 50.566,306.687 50.333,306.744 50.333 C 306.859 50.333,307.244 50.031,307.550 49.700 C 308.268 48.923,309.090 48.167,309.216 48.167 C 309.297 48.167,309.800 47.717,310.333 47.167 C 310.867 46.617,311.380 46.167,311.474 46.167 C 311.568 46.167,312.057 45.754,312.562 45.250 C 313.066 44.746,313.526 44.333,313.584 44.333 C 314.075 44.333,314.292 43.562,313.842 43.419 C 313.663 43.363,313.472 43.174,313.417 43.000 C 313.361 42.826,313.156 42.633,312.960 42.571 C 312.765 42.509,312.375 42.215,312.094 41.919 C 311.813 41.622,311.415 41.327,311.208 41.262 C 311.002 41.197,310.833 41.074,310.833 40.989 C 310.833 40.903,310.721 40.833,310.583 40.833 C 310.446 40.833,310.333 40.760,310.333 40.670 C 310.333 40.580,310.160 40.463,309.949 40.410 C 309.737 40.357,309.427 40.130,309.259 39.907 C 309.091 39.683,308.814 39.500,308.643 39.500 C 308.473 39.500,308.333 39.425,308.333 39.333 C 308.333 39.242,308.218 39.167,308.078 39.167 C 307.938 39.167,307.780 39.054,307.727 38.917 C 307.674 38.779,307.489 38.667,307.316 38.667 C 307.142 38.667,307.000 38.600,307.000 38.518 C 307.000 38.436,306.813 38.322,306.583 38.265 C 306.354 38.207,306.167 38.087,306.167 37.997 C 306.167 37.907,306.054 37.833,305.917 37.833 C 305.779 37.833,305.667 37.764,305.667 37.680 C 305.667 37.596,305.442 37.477,305.167 37.417 C 304.892 37.356,304.667 37.246,304.667 37.172 C 304.667 37.098,304.404 36.988,304.083 36.928 C 303.762 36.867,303.500 36.747,303.500 36.659 C 303.500 36.572,303.313 36.500,303.083 36.500 C 302.854 36.500,302.667 36.426,302.667 36.335 C 302.667 36.245,302.367 36.123,302.000 36.064 C 301.633 36.005,301.333 35.892,301.333 35.812 C 301.333 35.732,301.146 35.667,300.917 35.667 C 300.688 35.667,300.500 35.599,300.500 35.516 C 300.500 35.433,300.106 35.311,299.625 35.245 C 299.144 35.180,298.702 35.051,298.644 34.958 C 298.533 34.783,292.617 34.649,290.708 34.779 M351.042 34.779 C 350.560 34.818,350.167 34.912,350.167 34.987 C 350.167 35.062,349.642 35.175,349.000 35.239 C 348.358 35.302,347.833 35.424,347.833 35.510 C 347.833 35.596,347.646 35.667,347.417 35.667 C 347.188 35.667,347.000 35.735,347.000 35.818 C 347.000 35.901,346.625 36.020,346.167 36.083 C 345.708 36.146,345.333 36.266,345.333 36.349 C 345.333 36.432,345.221 36.500,345.083 36.500 C 344.946 36.500,344.833 36.565,344.833 36.645 C 344.833 36.725,344.533 36.839,344.167 36.897 C 343.800 36.956,343.500 37.077,343.500 37.165 C 343.500 37.254,343.313 37.374,343.083 37.432 C 342.854 37.489,342.667 37.603,342.667 37.685 C 342.667 37.766,342.517 37.833,342.333 37.833 C 342.150 37.833,342.000 37.908,342.000 38.000 C 342.000 38.092,341.885 38.167,341.745 38.167 C 341.604 38.167,341.446 38.279,341.394 38.417 C 341.341 38.554,341.164 38.667,341.000 38.667 C 340.836 38.667,340.659 38.779,340.606 38.917 C 340.554 39.054,340.366 39.167,340.190 39.167 C 340.013 39.167,339.826 39.279,339.773 39.417 C 339.720 39.554,339.582 39.667,339.467 39.667 C 339.351 39.667,338.942 40.004,338.558 40.417 C 338.174 40.829,337.779 41.167,337.681 41.167 C 337.464 41.167,334.167 44.451,334.167 44.667 C 334.167 44.751,333.867 45.117,333.500 45.480 C 333.133 45.844,332.833 46.194,332.833 46.259 C 332.833 46.325,332.646 46.552,332.417 46.765 C 332.188 46.977,332.000 47.269,332.000 47.414 C 332.000 47.559,331.887 47.720,331.750 47.773 C 331.612 47.826,331.500 48.003,331.500 48.167 C 331.500 48.330,331.387 48.508,331.250 48.560 C 331.112 48.613,331.000 48.771,331.000 48.911 C 331.000 49.052,330.925 49.167,330.833 49.167 C 330.742 49.167,330.667 49.309,330.667 49.482 C 330.667 49.656,330.554 49.841,330.417 49.894 C 330.279 49.946,330.167 50.142,330.167 50.328 C 330.167 50.514,330.092 50.667,330.000 50.667 C 329.908 50.667,329.833 50.779,329.833 50.917 C 329.833 51.054,329.764 51.167,329.680 51.167 C 329.596 51.167,329.477 51.392,329.417 51.667 C 329.356 51.942,329.246 52.167,329.172 52.167 C 329.098 52.167,328.988 52.429,328.928 52.750 C 328.867 53.071,328.747 53.333,328.659 53.333 C 328.572 53.333,328.500 53.521,328.500 53.750 C 328.500 53.979,328.426 54.167,328.335 54.167 C 328.245 54.167,328.123 54.467,328.064 54.833 C 328.005 55.200,327.892 55.500,327.812 55.500 C 327.732 55.500,327.667 55.688,327.667 55.917 C 327.667 56.146,327.597 56.333,327.512 56.333 C 327.427 56.333,327.306 56.746,327.243 57.250 C 327.180 57.754,327.067 58.167,326.992 58.167 C 326.917 58.167,326.804 58.767,326.740 59.500 C 326.676 60.233,326.558 60.833,326.478 60.833 C 326.399 60.833,326.333 61.283,326.333 61.833 C 326.333 62.389,326.259 62.833,326.167 62.833 C 326.060 62.833,326.000 64.194,326.000 66.583 C 326.000 68.972,326.060 70.333,326.167 70.333 C 326.261 70.333,326.333 70.806,326.333 71.417 C 326.333 72.012,326.399 72.500,326.480 72.500 C 326.561 72.500,326.680 73.137,326.745 73.917 C 326.810 74.696,326.923 75.333,326.996 75.333 C 327.069 75.333,327.180 75.746,327.243 76.250 C 327.306 76.754,327.427 77.167,327.512 77.167 C 327.597 77.167,327.667 77.429,327.667 77.750 C 327.667 78.071,327.735 78.333,327.819 78.333 C 327.902 78.333,328.021 78.633,328.083 79.000 C 328.145 79.367,328.264 79.667,328.348 79.667 C 328.432 79.667,328.500 79.779,328.500 79.917 C 328.500 80.054,328.565 80.167,328.645 80.167 C 328.725 80.167,328.839 80.467,328.897 80.833 C 328.956 81.200,329.078 81.500,329.169 81.500 C 329.259 81.500,329.333 81.574,329.333 81.666 C 329.333 81.935,329.902 83.167,330.026 83.167 C 330.089 83.167,330.190 83.392,330.250 83.667 C 330.310 83.942,330.429 84.167,330.513 84.167 C 330.598 84.167,330.667 84.309,330.667 84.482 C 330.667 84.656,330.779 84.841,330.917 84.894 C 331.054 84.946,331.167 85.091,331.167 85.215 C 331.167 85.339,331.354 85.603,331.583 85.802 C 331.813 86.001,332.000 86.277,332.000 86.416 C 332.000 86.554,332.070 86.667,332.155 86.667 C 332.241 86.667,332.363 86.831,332.427 87.031 C 332.490 87.232,332.795 87.634,333.104 87.926 C 333.414 88.217,333.667 88.510,333.667 88.576 C 333.667 88.826,337.803 92.833,338.062 92.833 C 338.211 92.833,338.333 92.897,338.333 92.976 C 338.333 93.220,339.139 94.000,339.391 94.000 C 339.523 94.000,339.674 94.112,339.727 94.250 C 339.780 94.388,339.967 94.500,340.144 94.500 C 340.320 94.500,340.508 94.612,340.560 94.750 C 340.613 94.888,340.804 95.000,340.984 95.000 C 341.164 95.000,341.358 95.147,341.415 95.328 C 341.481 95.535,341.729 95.695,342.093 95.763 C 342.408 95.822,342.667 95.937,342.667 96.019 C 342.667 96.100,342.779 96.167,342.917 96.167 C 343.054 96.167,343.167 96.236,343.167 96.320 C 343.167 96.404,343.392 96.523,343.667 96.583 C 343.942 96.644,344.167 96.754,344.167 96.828 C 344.167 96.902,344.504 97.013,344.917 97.075 C 345.329 97.136,345.667 97.257,345.667 97.344 C 345.667 97.430,345.817 97.500,346.000 97.500 C 346.183 97.500,346.333 97.571,346.333 97.658 C 346.333 97.746,346.783 97.868,347.333 97.930 C 347.883 97.992,348.333 98.108,348.333 98.188 C 348.333 98.268,348.515 98.333,348.736 98.333 C 348.958 98.333,349.164 98.407,349.194 98.496 C 349.225 98.586,350.319 98.710,351.625 98.772 C 352.931 98.834,354.000 98.948,354.000 99.026 C 354.000 99.103,354.750 99.167,355.667 99.167 C 356.583 99.167,357.333 99.103,357.333 99.025 C 357.333 98.946,358.140 98.831,359.125 98.767 C 360.110 98.704,360.942 98.580,360.972 98.493 C 361.003 98.405,361.284 98.333,361.597 98.333 C 361.910 98.333,362.167 98.265,362.167 98.182 C 362.167 98.099,362.542 97.980,363.000 97.917 C 363.458 97.854,363.833 97.734,363.833 97.651 C 363.833 97.568,364.021 97.500,364.250 97.500 C 364.479 97.500,364.667 97.426,364.667 97.335 C 364.667 97.245,364.967 97.123,365.333 97.064 C 365.700 97.005,366.000 96.900,366.000 96.830 C 366.000 96.760,366.202 96.652,366.448 96.590 C 366.695 96.528,367.014 96.343,367.157 96.179 C 367.300 96.015,367.604 95.822,367.833 95.750 C 368.063 95.678,368.363 95.490,368.500 95.333 C 368.637 95.176,368.934 94.990,369.159 94.919 C 369.384 94.847,369.662 94.706,369.778 94.603 C 370.290 94.150,370.493 94.000,370.598 94.000 C 370.660 94.000,370.958 93.737,371.261 93.417 C 371.563 93.096,371.886 92.833,371.978 92.833 C 372.070 92.833,372.554 92.412,373.053 91.897 C 374.217 90.698,374.131 90.784,374.958 89.995 C 375.348 89.624,375.667 89.243,375.667 89.149 C 375.667 89.055,375.919 88.739,376.227 88.447 C 376.535 88.155,376.839 87.752,376.902 87.550 C 376.965 87.349,377.158 87.139,377.331 87.084 C 377.504 87.029,377.669 86.825,377.698 86.630 C 377.726 86.435,377.844 86.245,377.958 86.207 C 378.122 86.154,378.167 87.350,378.167 91.819 L 378.167 97.500 384.833 97.500 L 391.500 97.500 391.500 66.833 L 391.500 36.167 384.833 36.167 L 378.167 36.167 378.167 41.917 C 378.167 47.279,378.079 48.374,377.737 47.292 C 377.672 47.085,377.490 46.804,377.333 46.667 C 377.176 46.529,376.997 46.255,376.934 46.057 C 376.872 45.859,376.711 45.655,376.577 45.604 C 376.443 45.553,376.333 45.419,376.333 45.308 C 376.333 45.197,375.958 44.744,375.500 44.302 C 375.042 43.860,374.667 43.414,374.667 43.311 C 374.667 43.108,374.032 42.500,373.821 42.500 C 373.750 42.500,373.207 42.012,372.614 41.417 C 372.021 40.821,371.481 40.333,371.413 40.333 C 371.345 40.333,371.168 40.194,371.020 40.024 C 370.871 39.854,370.581 39.661,370.375 39.596 C 370.169 39.531,370.000 39.416,370.000 39.340 C 370.000 39.265,369.813 39.156,369.583 39.098 C 369.354 39.041,369.167 38.920,369.167 38.830 C 369.167 38.740,369.054 38.667,368.917 38.667 C 368.779 38.667,368.667 38.593,368.667 38.503 C 368.667 38.413,368.479 38.293,368.250 38.235 C 368.021 38.178,367.833 38.064,367.833 37.982 C 367.833 37.900,367.721 37.833,367.583 37.833 C 367.446 37.833,367.333 37.762,367.333 37.674 C 367.333 37.587,367.071 37.466,366.750 37.406 C 366.429 37.345,366.167 37.236,366.167 37.161 C 366.167 37.087,365.942 36.977,365.667 36.917 C 365.392 36.856,365.167 36.738,365.167 36.653 C 365.167 36.569,364.979 36.500,364.750 36.500 C 364.521 36.500,364.333 36.426,364.333 36.335 C 364.333 36.245,364.033 36.123,363.667 36.064 C 363.300 36.005,363.000 35.892,363.000 35.812 C 363.000 35.732,362.813 35.667,362.583 35.667 C 362.354 35.667,362.167 35.599,362.167 35.517 C 362.167 35.435,361.623 35.313,360.958 35.247 C 360.294 35.181,359.701 35.049,359.640 34.953 C 359.528 34.775,352.752 34.638,351.042 34.779 M127.972 47.171 C 128.003 47.260,128.247 47.333,128.514 47.333 C 128.781 47.333,129.000 47.399,129.000 47.478 C 129.000 47.558,129.450 47.675,130.000 47.737 C 130.550 47.799,131.000 47.921,131.000 48.008 C 131.000 48.095,131.112 48.167,131.250 48.167 C 131.387 48.167,131.500 48.236,131.500 48.320 C 131.500 48.404,131.725 48.523,132.000 48.583 C 132.275 48.644,132.500 48.754,132.500 48.828 C 132.500 48.902,132.762 49.012,133.083 49.072 C 133.404 49.133,133.667 49.253,133.667 49.341 C 133.667 49.428,133.752 49.500,133.856 49.500 C 133.960 49.500,134.219 49.688,134.431 49.917 C 134.644 50.146,134.900 50.333,135.000 50.333 C 135.100 50.333,135.356 50.521,135.569 50.750 C 135.781 50.979,136.031 51.167,136.125 51.167 C 136.326 51.167,137.667 52.478,137.667 52.675 C 137.667 52.750,137.817 52.858,138.000 52.917 C 138.183 52.975,138.333 53.127,138.333 53.255 C 138.333 53.384,138.558 53.719,138.833 54.000 C 139.108 54.281,139.333 54.613,139.333 54.738 C 139.333 54.862,139.446 55.008,139.583 55.060 C 139.721 55.113,139.833 55.244,139.833 55.350 C 139.833 55.457,139.973 55.666,140.143 55.814 C 140.313 55.962,140.506 56.252,140.571 56.458 C 140.636 56.665,140.759 56.833,140.845 56.833 C 140.930 56.833,141.000 56.946,141.000 57.083 C 141.000 57.221,141.069 57.333,141.153 57.333 C 141.238 57.333,141.360 57.577,141.424 57.875 C 141.489 58.173,141.626 58.472,141.729 58.539 C 141.832 58.606,133.827 58.663,123.940 58.664 L 105.964 58.667 106.078 58.208 C 106.140 57.956,106.261 57.725,106.346 57.694 C 106.431 57.664,106.500 57.533,106.500 57.403 C 106.500 57.273,106.575 57.167,106.667 57.167 C 106.758 57.167,106.833 57.014,106.833 56.828 C 106.833 56.642,106.946 56.446,107.083 56.394 C 107.221 56.341,107.333 56.156,107.333 55.982 C 107.333 55.809,107.411 55.667,107.505 55.667 C 107.600 55.667,107.727 55.535,107.788 55.375 C 107.897 55.090,108.034 54.896,108.458 54.423 C 108.573 54.295,108.667 54.144,108.667 54.087 C 108.667 53.887,112.003 50.667,112.210 50.667 C 112.326 50.667,112.562 50.479,112.734 50.250 C 112.906 50.021,113.149 49.833,113.273 49.833 C 113.398 49.833,113.500 49.758,113.500 49.667 C 113.500 49.575,113.642 49.500,113.816 49.500 C 113.989 49.500,114.174 49.387,114.227 49.250 C 114.280 49.112,114.475 49.000,114.661 49.000 C 114.848 49.000,115.000 48.928,115.000 48.841 C 115.000 48.753,115.263 48.632,115.585 48.572 C 115.907 48.512,116.211 48.396,116.262 48.314 C 116.312 48.233,116.536 48.167,116.760 48.167 C 116.984 48.167,117.167 48.096,117.167 48.010 C 117.167 47.924,117.504 47.803,117.917 47.741 C 118.329 47.679,118.667 47.562,118.667 47.481 C 118.667 47.400,118.967 47.333,119.333 47.333 C 119.700 47.333,120.000 47.262,120.000 47.174 C 120.000 46.832,127.855 46.830,127.972 47.171 M357.833 47.167 C 357.833 47.258,358.246 47.333,358.750 47.333 C 359.254 47.333,359.667 47.398,359.667 47.476 C 359.667 47.555,360.135 47.668,360.708 47.728 C 361.281 47.788,361.775 47.911,361.806 48.002 C 361.836 48.092,362.042 48.167,362.264 48.167 C 362.485 48.167,362.667 48.232,362.667 48.312 C 362.667 48.392,362.967 48.505,363.333 48.564 C 363.700 48.623,364.000 48.736,364.000 48.817 C 364.000 48.897,364.278 49.015,364.618 49.079 C 364.957 49.142,365.351 49.328,365.493 49.490 C 365.634 49.653,365.919 49.839,366.125 49.904 C 366.331 49.969,366.500 50.092,366.500 50.178 C 366.500 50.263,366.613 50.333,366.750 50.333 C 366.887 50.333,367.000 50.403,367.000 50.489 C 367.000 50.574,367.169 50.697,367.375 50.762 C 367.581 50.827,367.915 51.057,368.117 51.273 C 368.319 51.490,368.555 51.667,368.642 51.667 C 368.886 51.667,371.667 54.486,371.667 54.734 C 371.667 54.855,371.850 55.091,372.073 55.259 C 372.297 55.427,372.523 55.737,372.576 55.949 C 372.630 56.160,372.747 56.333,372.837 56.333 C 372.926 56.333,373.000 56.446,373.000 56.583 C 373.000 56.721,373.074 56.833,373.163 56.833 C 373.253 56.833,373.374 57.021,373.432 57.250 C 373.489 57.479,373.603 57.667,373.685 57.667 C 373.766 57.667,373.833 57.779,373.833 57.917 C 373.833 58.054,373.905 58.167,373.992 58.167 C 374.080 58.167,374.201 58.429,374.261 58.750 C 374.321 59.071,374.427 59.333,374.497 59.333 C 374.567 59.333,374.672 59.633,374.731 60.000 C 374.789 60.367,374.911 60.667,375.002 60.667 C 375.093 60.667,375.167 60.848,375.167 61.069 C 375.167 61.291,375.241 61.497,375.332 61.528 C 375.423 61.558,375.547 62.165,375.607 62.875 C 375.667 63.585,375.780 64.167,375.858 64.167 C 375.936 64.167,376.000 65.442,376.000 67.000 C 376.000 68.558,375.934 69.833,375.853 69.833 C 375.772 69.833,375.653 70.396,375.589 71.083 C 375.524 71.771,375.403 72.333,375.319 72.333 C 375.235 72.333,375.167 72.521,375.167 72.750 C 375.167 72.979,375.100 73.167,375.019 73.167 C 374.938 73.167,374.821 73.504,374.759 73.917 C 374.697 74.329,374.584 74.667,374.508 74.667 C 374.432 74.667,374.321 74.929,374.261 75.250 C 374.201 75.571,374.080 75.833,373.992 75.833 C 373.905 75.833,373.833 75.946,373.833 76.083 C 373.833 76.221,373.766 76.333,373.685 76.333 C 373.603 76.333,373.489 76.521,373.432 76.750 C 373.374 76.979,373.253 77.167,373.163 77.167 C 373.074 77.167,373.000 77.279,373.000 77.417 C 373.000 77.554,372.930 77.667,372.845 77.667 C 372.759 77.667,372.637 77.831,372.573 78.031 C 372.510 78.232,372.205 78.634,371.896 78.926 C 371.586 79.217,371.333 79.535,371.333 79.631 C 371.333 79.848,368.866 82.333,368.650 82.333 C 368.564 82.333,368.252 82.581,367.955 82.885 C 367.659 83.188,367.285 83.486,367.125 83.546 C 366.965 83.607,366.833 83.725,366.833 83.810 C 366.833 83.894,366.587 84.009,366.286 84.066 C 365.985 84.122,365.630 84.320,365.496 84.505 C 365.361 84.693,364.975 84.887,364.627 84.942 C 364.282 84.998,364.000 85.108,364.000 85.188 C 364.000 85.268,363.887 85.333,363.750 85.333 C 363.613 85.333,363.500 85.407,363.500 85.498 C 363.500 85.589,363.200 85.711,362.833 85.769 C 362.467 85.828,362.167 85.933,362.167 86.002 C 362.167 86.071,361.679 86.180,361.083 86.244 C 360.488 86.308,360.000 86.429,360.000 86.513 C 360.000 86.598,359.550 86.667,359.000 86.667 C 358.444 86.667,358.000 86.741,358.000 86.833 C 358.000 86.935,357.222 87.000,356.000 87.000 C 354.778 87.000,354.000 86.935,354.000 86.833 C 354.000 86.742,353.587 86.667,353.083 86.667 C 352.579 86.667,352.167 86.601,352.167 86.522 C 352.167 86.442,351.717 86.325,351.167 86.263 C 350.617 86.201,350.167 86.086,350.167 86.007 C 350.167 85.929,349.792 85.813,349.333 85.750 C 348.875 85.687,348.500 85.567,348.500 85.484 C 348.500 85.401,348.387 85.333,348.250 85.333 C 348.113 85.333,348.000 85.264,348.000 85.180 C 348.000 85.096,347.775 84.977,347.500 84.917 C 347.225 84.856,347.000 84.738,347.000 84.653 C 347.000 84.569,346.858 84.500,346.684 84.500 C 346.511 84.500,346.326 84.387,346.273 84.250 C 346.220 84.112,346.062 84.000,345.922 84.000 C 345.782 84.000,345.667 83.925,345.667 83.833 C 345.667 83.742,345.527 83.667,345.357 83.667 C 345.186 83.667,344.906 83.479,344.734 83.250 C 344.562 83.021,344.337 82.833,344.235 82.833 C 343.983 82.833,340.500 79.364,340.500 79.113 C 340.500 79.003,340.313 78.772,340.083 78.600 C 339.854 78.427,339.667 78.152,339.667 77.988 C 339.667 77.824,339.525 77.644,339.351 77.589 C 339.155 77.527,338.994 77.269,338.927 76.911 C 338.867 76.593,338.753 76.333,338.672 76.333 C 338.592 76.333,338.477 76.108,338.417 75.833 C 338.356 75.558,338.238 75.333,338.153 75.333 C 338.069 75.333,338.000 75.183,338.000 75.000 C 338.000 74.817,337.926 74.667,337.835 74.667 C 337.745 74.667,337.623 74.367,337.564 74.000 C 337.505 73.633,337.392 73.333,337.312 73.333 C 337.232 73.333,337.167 73.152,337.167 72.931 C 337.167 72.709,337.094 72.503,337.005 72.472 C 336.915 72.442,336.792 71.854,336.729 71.167 C 336.667 70.479,336.548 69.872,336.464 69.817 C 336.251 69.677,336.259 63.482,336.473 63.350 C 336.565 63.293,336.694 62.778,336.759 62.206 C 336.823 61.635,336.942 61.167,337.022 61.167 C 337.101 61.167,337.167 60.979,337.167 60.750 C 337.167 60.521,337.232 60.333,337.312 60.333 C 337.392 60.333,337.505 60.033,337.564 59.667 C 337.623 59.300,337.745 59.000,337.835 59.000 C 337.926 59.000,338.000 58.887,338.000 58.750 C 338.000 58.612,338.067 58.500,338.148 58.500 C 338.230 58.500,338.344 58.245,338.403 57.933 C 338.461 57.621,338.620 57.323,338.755 57.271 C 338.890 57.220,339.000 57.030,339.000 56.850 C 339.000 56.669,339.149 56.475,339.333 56.417 C 339.517 56.358,339.667 56.176,339.667 56.012 C 339.667 55.848,339.854 55.573,340.083 55.400 C 340.313 55.228,340.500 54.998,340.500 54.888 C 340.500 54.725,341.467 53.695,342.535 52.721 C 342.653 52.613,342.990 52.263,343.282 51.943 C 343.575 51.623,343.969 51.313,344.157 51.253 C 344.346 51.193,344.500 51.074,344.500 50.989 C 344.500 50.903,344.609 50.833,344.742 50.833 C 344.876 50.833,345.169 50.649,345.395 50.423 C 345.620 50.198,345.999 49.965,346.236 49.905 C 346.473 49.846,346.667 49.730,346.667 49.649 C 346.667 49.567,346.779 49.500,346.917 49.500 C 347.054 49.500,347.167 49.433,347.167 49.352 C 347.167 49.270,347.429 49.155,347.750 49.094 C 348.071 49.034,348.333 48.914,348.333 48.828 C 348.333 48.741,348.633 48.623,349.000 48.564 C 349.367 48.505,349.667 48.392,349.667 48.312 C 349.667 48.232,349.854 48.167,350.083 48.167 C 350.313 48.167,350.500 48.097,350.500 48.012 C 350.500 47.927,350.912 47.806,351.417 47.743 C 351.921 47.680,352.333 47.562,352.333 47.481 C 352.333 47.400,352.821 47.333,353.417 47.333 C 354.028 47.333,354.500 47.261,354.500 47.167 C 354.500 47.067,355.167 47.000,356.167 47.000 C 357.167 47.000,357.833 47.067,357.833 47.167 M20.792 61.610 C 20.448 61.652,20.167 61.757,20.167 61.843 C 20.167 61.930,20.054 62.000,19.917 62.000 C 19.779 62.000,19.667 62.075,19.667 62.167 C 19.667 62.258,19.565 62.333,19.441 62.333 C 19.132 62.333,18.333 63.096,18.333 63.391 C 18.333 63.523,18.221 63.674,18.083 63.727 C 17.946 63.780,17.833 63.975,17.833 64.161 C 17.833 64.348,17.758 64.500,17.667 64.500 C 17.569 64.500,17.500 65.056,17.500 65.833 C 17.500 66.611,17.569 67.167,17.667 67.167 C 17.758 67.167,17.833 67.357,17.833 67.589 C 17.833 67.821,17.946 68.054,18.083 68.106 C 18.221 68.159,18.333 68.307,18.333 68.434 C 18.333 68.736,18.871 69.270,19.317 69.411 C 19.509 69.473,19.667 69.592,19.667 69.678 C 19.667 69.763,19.854 69.833,20.083 69.833 C 20.313 69.833,20.500 69.908,20.500 70.000 C 20.500 70.101,21.250 70.167,22.417 70.167 C 23.583 70.167,24.333 70.101,24.333 70.000 C 24.333 69.908,24.446 69.833,24.583 69.833 C 24.721 69.833,24.833 69.768,24.833 69.688 C 24.833 69.608,25.133 69.495,25.500 69.436 C 25.867 69.377,26.167 69.263,26.167 69.183 C 26.167 69.102,26.354 68.989,26.583 68.932 C 26.813 68.874,27.000 68.753,27.000 68.663 C 27.000 68.574,27.113 68.500,27.250 68.500 C 27.387 68.500,27.500 68.425,27.500 68.333 C 27.500 68.242,27.639 68.167,27.810 68.167 C 27.980 68.167,28.261 67.979,28.433 67.750 C 28.605 67.521,28.841 67.333,28.958 67.333 C 29.074 67.333,29.298 67.183,29.455 67.000 C 29.612 66.817,29.823 66.667,29.924 66.667 C 30.103 66.667,30.833 65.921,30.833 65.737 C 30.833 65.561,30.403 65.211,30.049 65.099 C 29.856 65.038,29.655 64.878,29.604 64.744 C 29.553 64.610,29.363 64.500,29.183 64.500 C 29.003 64.500,28.811 64.357,28.755 64.183 C 28.700 64.009,28.470 63.820,28.244 63.763 C 28.018 63.707,27.833 63.587,27.833 63.497 C 27.833 63.407,27.721 63.333,27.583 63.333 C 27.446 63.333,27.333 63.260,27.333 63.170 C 27.333 63.080,27.146 62.959,26.917 62.902 C 26.688 62.844,26.500 62.739,26.500 62.667 C 26.500 62.596,26.238 62.488,25.917 62.428 C 25.596 62.367,25.333 62.247,25.333 62.159 C 25.333 62.072,25.152 62.000,24.931 62.000 C 24.709 62.000,24.502 61.921,24.469 61.825 C 24.406 61.636,21.821 61.485,20.792 61.610 M54.333 62.165 C 54.333 62.255,54.033 62.377,53.667 62.436 C 53.300 62.495,53.000 62.600,53.000 62.670 C 53.000 62.740,52.798 62.848,52.552 62.910 C 52.305 62.972,51.986 63.157,51.843 63.321 C 51.700 63.485,51.402 63.676,51.181 63.746 C 50.959 63.816,50.600 64.052,50.382 64.270 C 50.163 64.488,49.910 64.667,49.818 64.667 C 49.726 64.667,49.477 64.854,49.265 65.083 C 49.052 65.313,48.793 65.500,48.689 65.500 C 48.585 65.500,48.500 65.570,48.500 65.655 C 48.500 65.741,48.350 65.858,48.167 65.917 C 47.719 66.059,47.741 66.615,48.201 66.761 C 48.403 66.825,48.662 66.961,48.778 67.064 C 49.316 67.540,49.497 67.667,49.642 67.667 C 49.728 67.667,49.841 67.779,49.894 67.917 C 49.946 68.054,50.137 68.167,50.317 68.167 C 50.498 68.167,50.692 68.316,50.750 68.500 C 50.808 68.684,51.002 68.833,51.183 68.833 C 51.363 68.833,51.553 68.944,51.605 69.079 C 51.656 69.214,51.954 69.372,52.266 69.431 C 52.578 69.489,52.833 69.604,52.833 69.685 C 52.833 69.767,52.946 69.833,53.083 69.833 C 53.221 69.833,53.333 69.903,53.333 69.988 C 53.333 70.073,53.746 70.194,54.250 70.257 C 54.754 70.320,55.167 70.438,55.167 70.519 C 55.167 70.600,55.654 70.667,56.250 70.667 C 56.846 70.667,57.333 70.601,57.333 70.522 C 57.333 70.442,57.687 70.337,58.120 70.288 C 58.552 70.239,58.933 70.117,58.967 70.016 C 59.000 69.916,59.134 69.833,59.264 69.833 C 59.394 69.833,59.500 69.763,59.500 69.678 C 59.500 69.592,59.646 69.476,59.825 69.419 C 60.003 69.363,60.202 69.151,60.265 68.950 C 60.329 68.748,60.539 68.446,60.732 68.278 C 61.153 67.911,61.277 64.677,60.875 64.542 C 60.760 64.504,60.667 64.328,60.667 64.153 C 60.667 63.977,60.600 63.833,60.518 63.833 C 60.436 63.833,60.324 63.651,60.268 63.428 C 60.212 63.205,60.001 62.970,59.799 62.906 C 59.597 62.842,59.330 62.687,59.204 62.561 C 59.079 62.436,58.794 62.333,58.571 62.333 C 58.349 62.333,58.167 62.258,58.167 62.167 C 58.167 62.065,57.417 62.000,56.250 62.000 C 55.099 62.000,54.333 62.066,54.333 62.165 M294.405 101.375 C 294.340 101.581,294.110 101.915,293.894 102.117 C 293.677 102.319,293.500 102.592,293.500 102.724 C 293.500 102.856,293.387 103.008,293.250 103.060 C 293.112 103.113,293.000 103.304,293.000 103.484 C 293.000 103.664,292.857 103.856,292.683 103.911 C 292.509 103.967,292.320 104.197,292.263 104.423 C 292.207 104.649,292.090 104.833,292.004 104.833 C 291.919 104.833,291.799 105.096,291.739 105.417 C 291.679 105.737,291.563 106.000,291.481 106.000 C 291.400 106.000,291.333 106.112,291.333 106.250 C 291.333 106.388,291.264 106.500,291.179 106.500 C 291.094 106.500,290.972 106.912,290.909 107.417 C 290.846 107.921,290.729 108.333,290.647 108.333 C 290.566 108.333,290.500 108.821,290.500 109.417 C 290.500 110.013,290.565 110.500,290.645 110.500 C 290.725 110.500,290.830 110.854,290.879 111.286 C 290.927 111.719,291.050 112.100,291.150 112.133 C 291.251 112.167,291.333 112.264,291.333 112.349 C 291.333 112.599,292.202 113.500,292.444 113.500 C 292.567 113.500,292.667 113.574,292.667 113.663 C 292.667 113.753,292.854 113.874,293.083 113.932 C 293.313 113.989,293.500 114.103,293.500 114.185 C 293.500 114.266,294.100 114.333,294.833 114.333 C 295.611 114.333,296.167 114.264,296.167 114.167 C 296.167 114.075,296.349 114.000,296.571 114.000 C 296.794 114.000,297.078 113.906,297.203 113.792 C 297.328 113.677,297.573 113.503,297.746 113.406 C 297.919 113.308,298.141 113.086,298.239 112.913 C 298.337 112.739,298.510 112.495,298.625 112.370 C 298.740 112.245,298.833 111.961,298.833 111.738 C 298.833 111.515,298.908 111.333,299.000 111.333 C 299.101 111.333,299.167 110.583,299.167 109.417 C 299.167 108.265,299.101 107.500,299.002 107.500 C 298.911 107.500,298.789 107.200,298.731 106.833 C 298.672 106.467,298.567 106.167,298.497 106.167 C 298.427 106.167,298.319 105.965,298.257 105.718 C 298.195 105.472,298.010 105.153,297.846 105.010 C 297.682 104.867,297.490 104.569,297.421 104.347 C 297.351 104.126,297.115 103.766,296.897 103.548 C 296.679 103.330,296.500 103.070,296.500 102.970 C 296.500 102.870,296.313 102.614,296.083 102.402 C 295.854 102.190,295.667 101.937,295.667 101.841 C 295.667 101.745,295.597 101.667,295.511 101.667 C 295.426 101.667,295.308 101.517,295.250 101.333 C 295.106 100.881,294.551 100.908,294.405 101.375 " stroke="none" fill="#428bca" fill-rule="evenodd"></path></g></svg>