<svg id="svg" version="1.1" width="400" height="400" xmlns="http://www.w3.org/2000/svg" xmlns:xlink="http://www.w3.org/1999/xlink" style="display: block;"><g id="svgg"><path id="path0" d="M24.400 36.433 C 24.400 37.753,25.292 38.552,26.381 38.206 C 28.011 37.689,27.510 35.154,25.800 35.269 C 24.573 35.352,24.400 35.495,24.400 36.433 M85.277 40.702 C 85.404 41.364,92.839 41.405,229.705 41.501 C 373.667 41.601,374.000 41.603,374.000 42.401 C 374.000 42.933,374.267 43.200,374.800 43.200 C 375.333 43.200,375.600 42.933,375.600 42.400 C 375.600 41.903,375.333 41.600,374.896 41.600 C 374.509 41.600,373.968 41.240,373.693 40.801 C 372.959 39.626,85.050 39.527,85.277 40.702 M77.643 42.309 C 77.450 42.653,76.712 42.937,75.951 42.960 C 73.737 43.026,73.731 44.800,75.944 44.800 C 77.299 44.800,77.564 44.662,77.672 43.900 C 77.794 43.043,77.944 43.006,80.844 43.136 C 83.663 43.262,83.904 43.210,84.109 42.427 C 84.397 41.325,78.257 41.212,77.643 42.309 M375.867 43.067 C 375.316 43.617,375.629 44.400,376.400 44.400 C 377.198 44.400,377.200 44.667,377.200 184.167 C 377.200 317.476,377.251 325.993,378.050 324.734 C 378.292 324.351,378.389 324.454,378.394 325.100 C 378.397 325.609,378.183 325.957,377.900 325.900 C 377.533 325.827,377.369 326.841,377.286 329.700 C 377.177 333.390,377.215 333.600,377.983 333.600 L 378.794 333.600 378.798 189.227 C 378.802 45.133,378.801 44.854,378.001 44.600 C 377.561 44.461,377.200 44.168,377.200 43.949 C 377.200 43.731,376.989 43.683,376.732 43.842 C 376.417 44.036,376.348 43.913,376.519 43.466 C 376.774 42.803,376.374 42.559,375.867 43.067 M69.600 45.487 C 69.600 46.819,71.733 46.671,71.924 45.326 C 72.030 44.585,71.863 44.457,70.824 44.487 C 69.806 44.516,69.600 44.684,69.600 45.487 M66.800 46.400 C 67.294 46.719,67.300 46.789,66.833 46.794 C 66.136 46.801,66.601 47.324,67.412 47.443 C 68.203 47.559,68.165 46.549,67.367 46.243 C 66.419 45.879,66.121 45.961,66.800 46.400 M62.267 47.867 C 61.716 48.417,62.029 49.200,62.800 49.200 C 63.333 49.200,63.600 48.933,63.600 48.400 C 63.600 47.629,62.817 47.316,62.267 47.867 M59.247 49.953 C 58.781 50.419,58.130 50.800,57.800 50.800 C 57.467 50.800,57.200 51.156,57.200 51.600 C 57.200 52.133,57.467 52.400,58.000 52.400 C 58.533 52.400,58.800 52.133,58.800 51.600 C 58.800 51.075,59.067 50.800,59.576 50.800 C 60.524 50.800,60.857 50.340,60.421 49.634 C 60.165 49.220,59.911 49.289,59.247 49.953 M54.000 53.200 C 54.000 53.665,53.733 54.000,53.363 54.000 C 53.012 54.000,52.635 54.343,52.526 54.763 C 52.416 55.183,51.983 55.616,51.563 55.726 C 50.541 55.993,50.572 57.200,51.600 57.200 C 52.133 57.200,52.400 56.933,52.400 56.400 C 52.400 55.876,52.667 55.600,53.173 55.600 C 53.598 55.600,54.060 55.240,54.200 54.800 C 54.358 54.302,54.805 54.000,55.384 54.000 C 56.281 54.000,56.997 53.131,56.506 52.639 C 55.868 52.002,54.000 52.420,54.000 53.200 M47.800 58.000 C 47.660 58.440,47.297 58.800,46.994 58.800 C 46.183 58.800,44.400 60.580,44.400 61.389 C 44.400 61.833,44.190 62.005,43.820 61.863 C 43.470 61.729,43.143 61.949,42.994 62.420 C 42.857 62.849,42.488 63.200,42.173 63.200 C 41.858 63.200,41.600 63.560,41.600 64.000 C 41.600 64.533,41.333 64.800,40.800 64.800 C 40.283 64.800,40.000 65.067,40.000 65.553 C 40.000 65.970,39.643 66.400,39.200 66.516 C 38.721 66.641,38.400 67.062,38.400 67.563 C 38.400 68.133,38.655 68.400,39.200 68.400 C 39.724 68.400,40.000 68.133,40.000 67.627 C 40.000 67.202,40.360 66.740,40.800 66.600 C 41.240 66.460,41.600 66.088,41.600 65.773 C 41.600 65.458,41.960 65.200,42.400 65.200 C 42.933 65.200,43.200 64.933,43.200 64.400 C 43.200 63.935,43.467 63.600,43.837 63.600 C 44.188 63.600,44.569 63.240,44.684 62.800 C 44.800 62.357,45.230 62.000,45.647 62.000 C 46.069 62.000,46.400 61.720,46.400 61.363 C 46.400 61.012,46.760 60.631,47.200 60.516 C 47.643 60.400,48.000 59.970,48.000 59.553 C 48.000 59.054,48.284 58.800,48.843 58.800 C 49.447 58.800,49.617 58.621,49.443 58.167 C 49.309 57.819,49.200 57.459,49.200 57.367 C 49.200 56.803,48.009 57.341,47.800 58.000 M34.636 72.431 C 33.534 73.740,33.133 75.686,34.137 74.852 C 34.432 74.607,34.792 74.525,34.937 74.670 C 35.082 74.815,35.200 74.555,35.200 74.094 C 35.200 73.605,35.535 73.148,36.000 73.000 C 36.905 72.713,37.103 71.200,36.236 71.200 C 35.925 71.200,35.205 71.754,34.636 72.431 M32.000 76.963 C 32.000 78.142,33.407 77.980,33.726 76.763 C 33.881 76.168,33.713 76.000,32.963 76.000 C 32.212 76.000,32.000 76.212,32.000 76.963 M30.643 79.433 C 30.182 80.633,30.372 81.132,31.206 80.914 C 32.213 80.651,32.471 80.251,32.159 79.436 C 31.845 78.618,30.956 78.616,30.643 79.433 M27.475 86.341 C 27.232 87.613,27.525 88.400,28.243 88.400 C 28.622 88.400,28.800 87.911,28.800 86.867 C 28.800 85.093,27.790 84.692,27.475 86.341 M26.080 90.500 C 26.051 90.775,25.936 91.567,25.826 92.259 C 25.651 93.359,25.725 93.492,26.413 93.313 C 26.846 93.199,27.227 92.903,27.261 92.653 C 27.445 91.285,27.417 90.955,27.076 90.500 C 26.870 90.225,26.574 90.000,26.418 90.000 C 26.261 90.000,26.109 90.225,26.080 90.500 M25.100 94.722 C 24.507 94.838,24.405 95.299,24.432 97.729 C 24.449 99.308,24.554 100.374,24.666 100.098 C 24.777 99.821,25.034 99.698,25.237 99.823 C 25.814 100.179,26.054 99.102,25.922 96.748 C 25.820 94.938,25.686 94.608,25.100 94.722 M53.697 99.883 C 53.201 99.978,52.481 100.497,52.097 101.036 C 51.714 101.575,51.085 102.399,50.700 102.869 C 50.315 103.338,49.994 103.920,49.986 104.161 C 49.979 104.403,49.625 105.320,49.200 106.200 C 48.775 107.080,48.421 108.363,48.414 109.051 C 48.406 109.739,48.127 110.957,47.792 111.757 C 47.298 112.939,47.205 114.872,47.292 122.094 L 47.400 130.977 48.400 131.484 C 50.036 132.313,331.883 132.031,332.408 131.200 C 333.251 129.868,332.891 100.477,332.026 100.014 C 331.271 99.610,55.790 99.480,53.697 99.883 M22.800 221.200 C 22.800 333.333,22.802 333.600,23.600 333.600 C 24.398 333.600,24.400 333.333,24.400 221.200 C 24.400 109.067,24.398 108.800,23.600 108.800 C 22.802 108.800,22.800 109.067,22.800 221.200 M284.783 145.560 C 283.343 145.720,281.979 145.966,281.751 146.107 C 281.523 146.248,280.091 146.561,278.568 146.803 C 275.557 147.281,270.941 148.544,268.940 149.438 C 268.246 149.747,267.456 150.000,267.183 150.000 C 266.911 150.000,265.948 150.349,265.044 150.776 C 264.140 151.203,262.224 152.093,260.787 152.755 C 259.349 153.417,257.496 154.418,256.669 154.979 C 255.841 155.541,255.051 156.000,254.912 156.000 C 254.635 156.000,249.366 159.457,248.400 160.272 C 248.070 160.551,246.810 161.614,245.600 162.636 C 240.670 166.798,231.200 177.164,231.200 178.398 C 231.200 178.588,230.966 178.981,230.681 179.271 C 230.395 179.562,229.579 180.790,228.867 182.000 C 228.156 183.210,227.406 184.470,227.202 184.800 C 226.499 185.935,223.600 192.448,223.586 192.924 C 223.579 193.186,223.225 194.120,222.800 195.000 C 222.375 195.880,222.021 196.908,222.014 197.285 C 222.006 197.662,221.640 198.884,221.200 200.000 C 220.760 201.116,220.400 202.749,220.400 203.628 C 220.400 204.507,220.111 205.895,219.758 206.713 C 218.231 210.248,218.151 232.029,219.648 236.386 C 220.062 237.589,220.401 239.209,220.402 239.986 C 220.404 240.764,220.646 241.862,220.941 242.427 C 221.235 242.991,221.605 243.981,221.761 244.627 C 222.484 247.603,226.332 255.937,228.454 259.120 C 229.084 260.066,229.600 260.984,229.600 261.159 C 229.600 261.334,229.915 261.854,230.300 262.315 C 230.685 262.775,232.220 264.737,233.710 266.676 C 238.192 272.503,246.387 280.294,252.270 284.321 C 257.685 288.027,264.330 291.593,267.000 292.226 C 267.660 292.382,268.451 292.710,268.759 292.955 C 269.066 293.200,270.146 293.613,271.159 293.874 C 282.980 296.917,282.618 296.869,293.480 296.860 C 301.310 296.854,303.756 296.725,305.091 296.247 C 306.021 295.914,307.911 295.518,309.291 295.367 C 310.671 295.217,312.250 294.868,312.800 294.594 C 313.350 294.319,314.610 293.966,315.600 293.809 C 316.590 293.652,317.763 293.294,318.206 293.014 C 318.649 292.734,319.639 292.367,320.406 292.199 C 321.172 292.030,322.520 291.569,323.400 291.173 C 324.280 290.777,325.822 290.081,326.826 289.627 C 327.831 289.172,328.834 288.800,329.057 288.800 C 331.104 288.800,331.200 288.012,331.200 271.123 C 331.200 252.493,331.487 253.513,327.000 256.195 C 323.590 258.234,315.162 262.223,313.400 262.632 C 312.740 262.785,312.020 263.046,311.800 263.213 C 310.397 264.274,297.718 266.796,293.743 266.804 C 291.152 266.809,283.450 265.662,281.200 264.936 C 280.210 264.616,278.860 264.213,278.200 264.040 C 273.390 262.779,267.027 258.607,261.671 253.200 C 255.666 247.139,254.601 245.548,250.654 236.740 C 250.294 235.936,250.000 234.986,250.000 234.627 C 250.000 234.268,249.727 233.320,249.393 232.521 C 247.610 228.253,247.426 209.993,249.144 207.852 C 249.344 207.604,249.641 206.777,249.804 206.016 C 250.080 204.729,251.165 202.196,252.039 200.800 C 252.246 200.470,252.637 199.750,252.909 199.200 C 254.940 195.087,260.639 188.620,265.802 184.570 C 267.875 182.944,268.442 182.562,270.800 181.200 C 271.570 180.755,272.470 180.232,272.800 180.036 C 280.225 175.633,299.213 173.050,305.710 175.559 C 306.321 175.795,307.966 176.171,309.365 176.394 C 310.765 176.618,312.426 177.070,313.055 177.398 C 313.685 177.726,314.563 177.996,315.006 177.998 C 315.449 177.999,316.484 178.360,317.304 178.800 C 318.125 179.240,319.223 179.600,319.745 179.600 C 320.266 179.600,321.150 179.960,321.709 180.400 C 322.269 180.840,323.079 181.200,323.509 181.200 C 323.940 181.200,324.750 181.560,325.309 182.000 C 325.869 182.440,326.547 182.800,326.816 182.800 C 327.085 182.800,327.916 183.178,328.663 183.639 C 331.298 185.267,331.221 185.755,331.105 168.154 C 331.015 154.534,330.915 152.241,330.400 151.962 C 329.135 151.278,326.881 150.412,323.800 149.425 C 322.040 148.861,319.776 148.133,318.769 147.808 C 317.763 147.483,315.783 147.049,314.369 146.845 C 312.956 146.641,311.260 146.248,310.600 145.972 C 309.220 145.396,289.147 145.076,284.783 145.560 M47.590 151.426 C 46.937 153.143,47.079 181.801,47.743 182.353 C 48.140 182.683,62.073 182.776,99.843 182.702 L 151.400 182.600 151.515 167.800 C 151.579 159.660,151.525 152.415,151.397 151.700 L 151.164 150.400 99.572 150.400 L 47.980 150.400 47.590 151.426 M48.677 203.475 C 47.346 203.829,47.200 205.508,47.200 220.412 C 47.200 234.595,47.230 235.188,47.974 235.586 C 49.290 236.291,105.380 236.147,105.969 235.437 C 106.519 234.774,106.421 204.287,105.867 203.733 C 105.520 203.387,49.949 203.136,48.677 203.475 M181.137 207.230 C 171.236 209.995,168.166 220.931,175.386 227.716 C 181.193 233.173,190.074 232.424,200.248 225.619 C 201.909 224.509,203.347 223.600,203.445 223.600 C 203.543 223.600,204.510 222.925,205.593 222.100 C 206.676 221.275,207.976 220.303,208.481 219.940 L 209.400 219.281 207.786 217.740 C 199.507 209.838,188.020 205.308,181.137 207.230 M280.600 208.968 C 277.460 210.106,275.337 211.085,274.046 211.987 C 273.471 212.390,271.740 213.549,270.200 214.563 C 268.660 215.577,266.549 217.019,265.509 217.767 C 264.469 218.515,263.391 219.203,263.114 219.295 C 262.147 219.618,263.432 221.374,265.851 223.035 C 267.143 223.923,269.131 225.305,270.270 226.106 C 272.846 227.920,278.871 231.199,279.633 231.202 C 279.945 231.204,280.740 231.494,281.400 231.847 C 283.302 232.864,288.832 232.788,291.738 231.705 C 300.990 228.257,303.274 218.096,296.319 211.327 C 292.853 207.953,286.167 206.949,280.600 208.968 M48.341 255.067 C 47.274 255.352,47.211 256.290,47.205 271.910 L 47.200 286.820 48.230 287.211 C 48.888 287.462,69.336 287.566,104.930 287.501 L 160.600 287.400 160.600 271.200 L 160.600 255.000 104.800 254.946 C 74.110 254.916,48.703 254.970,48.341 255.067 M47.900 306.432 C 46.395 307.309,47.552 324.692,49.402 329.000 C 50.956 332.617,51.891 334.116,53.713 335.911 L 55.630 337.800 136.670 337.904 C 196.545 337.981,217.851 337.889,218.254 337.555 C 218.823 337.083,219.107 308.065,218.557 306.633 C 218.262 305.863,49.218 305.664,47.900 306.432 M24.400 339.600 C 24.400 340.933,24.533 341.200,25.200 341.200 C 25.867 341.200,26.000 340.933,26.000 339.600 C 26.000 338.267,25.867 338.000,25.200 338.000 C 24.533 338.000,24.400 338.267,24.400 339.600 M375.600 341.000 C 375.600 342.533,375.719 342.800,376.400 342.800 C 377.081 342.800,377.200 342.533,377.200 341.000 C 377.200 339.467,377.081 339.200,376.400 339.200 C 375.719 339.200,375.600 339.467,375.600 341.000 M25.969 342.900 C 25.699 343.783,25.726 344.687,26.039 345.273 C 26.686 346.481,27.200 346.095,27.200 344.400 C 27.200 343.117,26.255 341.965,25.969 342.900 M374.197 345.605 C 374.045 345.851,374.045 346.713,374.196 347.521 C 374.524 349.267,375.738 348.265,375.517 346.431 C 375.389 345.370,374.634 344.897,374.197 345.605 M27.200 348.000 C 27.200 348.220,27.417 348.355,27.682 348.300 C 27.947 348.245,28.172 348.410,28.182 348.667 C 28.221 349.670,28.800 349.670,28.800 348.667 C 28.800 347.867,28.600 347.600,28.000 347.600 C 27.560 347.600,27.200 347.780,27.200 348.000 M373.300 349.870 C 372.266 350.591,372.110 351.914,373.017 352.262 C 373.357 352.392,373.733 352.400,373.854 352.279 C 374.049 352.084,374.445 349.168,374.270 349.221 C 374.231 349.233,373.795 349.524,373.300 349.870 M28.800 352.411 C 28.800 353.509,29.522 355.200,29.990 355.200 C 30.825 355.200,30.462 352.109,29.600 351.884 C 29.014 351.731,28.800 351.872,28.800 352.411 M372.400 353.933 C 372.400 354.190,372.175 354.355,371.900 354.300 C 371.601 354.240,371.350 354.722,371.275 355.500 C 371.181 356.476,370.956 356.800,370.375 356.800 C 369.867 356.800,369.600 357.075,369.600 357.600 C 369.600 358.133,369.867 358.400,370.400 358.400 C 370.933 358.400,371.200 358.133,371.200 357.600 C 371.200 357.160,371.450 356.800,371.756 356.800 C 372.257 356.800,372.932 354.085,372.543 353.633 C 372.464 353.542,372.400 353.677,372.400 353.933 M30.680 355.053 C 30.279 355.454,30.334 356.712,30.764 356.978 C 31.467 357.412,32.443 356.707,32.321 355.853 C 32.200 355.008,31.209 354.524,30.680 355.053 M32.000 359.000 C 32.000 359.866,32.162 360.033,32.900 359.928 C 33.491 359.844,33.800 359.525,33.800 359.000 C 33.800 358.475,33.491 358.156,32.900 358.072 C 32.162 357.967,32.000 358.134,32.000 359.000 M368.000 360.833 C 368.000 361.808,368.935 361.670,369.129 360.667 C 369.206 360.272,369.002 360.000,368.629 360.000 C 368.258 360.000,368.000 360.342,368.000 360.833 M33.600 362.037 C 33.600 362.538,33.921 362.959,34.400 363.084 C 34.843 363.200,35.200 363.630,35.200 364.047 C 35.200 364.533,35.483 364.800,36.000 364.800 C 36.517 364.800,36.800 364.533,36.800 364.047 C 36.800 363.630,36.443 363.200,36.000 363.084 C 35.521 362.959,35.200 362.538,35.200 362.037 C 35.200 361.467,34.945 361.200,34.400 361.200 C 33.855 361.200,33.600 361.467,33.600 362.037 M366.400 362.371 C 366.400 362.921,366.658 363.200,367.165 363.200 C 368.116 363.200,368.026 361.859,367.062 361.671 C 366.617 361.584,366.400 361.813,366.400 362.371 M364.516 365.200 C 364.401 365.640,364.058 366.000,363.753 366.000 C 363.430 366.000,363.200 366.415,363.200 367.000 C 363.200 367.733,363.413 368.000,364.000 368.000 C 364.533 368.000,364.800 367.733,364.800 367.200 C 364.800 366.667,365.067 366.400,365.600 366.400 C 366.187 366.400,366.400 366.133,366.400 365.400 C 366.400 364.135,364.838 363.970,364.516 365.200 M36.800 366.810 C 36.800 367.215,37.160 367.660,37.600 367.800 C 38.040 367.940,38.400 368.402,38.400 368.827 C 38.400 369.252,38.535 369.579,38.700 369.553 C 39.510 369.425,39.967 369.666,40.179 370.333 C 40.307 370.737,40.679 371.067,41.006 371.067 C 41.896 371.067,41.722 369.725,40.800 369.484 C 40.360 369.369,40.000 369.009,40.000 368.684 C 40.000 368.359,39.640 367.999,39.200 367.884 C 38.760 367.769,38.400 367.409,38.400 367.084 C 38.400 366.759,38.040 366.399,37.600 366.284 C 37.014 366.131,36.800 366.272,36.800 366.810 M360.466 370.351 C 360.172 370.537,359.947 370.804,359.966 370.945 C 360.106 371.995,359.893 372.400,359.200 372.400 C 358.735 372.400,358.400 372.667,358.400 373.037 C 358.400 373.388,358.046 373.767,357.613 373.881 C 357.181 373.994,356.718 374.427,356.586 374.843 C 356.454 375.259,356.069 375.600,355.730 375.600 C 355.333 375.600,355.201 375.825,355.357 376.233 C 355.491 376.581,355.600 376.935,355.600 377.020 C 355.600 377.105,355.870 377.071,356.200 376.945 C 356.530 376.818,356.800 376.464,356.800 376.157 C 356.800 375.851,357.160 375.600,357.600 375.600 C 358.133 375.600,358.400 375.333,358.400 374.800 C 358.400 374.267,358.667 374.000,359.200 374.000 C 359.675 374.000,360.000 373.733,360.000 373.344 C 360.000 372.983,360.272 372.488,360.605 372.244 C 361.230 371.785,361.767 369.995,361.277 370.006 C 361.125 370.009,360.760 370.165,360.466 370.351 M43.084 373.200 C 42.969 373.639,43.012 374.084,43.179 374.187 C 43.684 374.499,44.943 373.355,44.638 372.861 C 44.188 372.133,43.313 372.323,43.084 373.200 M49.200 379.600 C 49.200 380.133,49.467 380.400,50.000 380.400 C 50.533 380.400,50.800 380.667,50.800 381.200 C 50.800 381.717,51.067 382.000,51.553 382.000 C 51.970 382.000,52.400 382.357,52.516 382.800 C 52.631 383.240,53.012 383.600,53.363 383.600 C 54.289 383.600,54.150 382.133,53.200 381.884 C 52.760 381.769,52.400 381.388,52.400 381.037 C 52.400 380.687,52.142 380.400,51.827 380.400 C 51.512 380.400,51.140 380.040,51.000 379.600 C 50.860 379.160,50.398 378.800,49.973 378.800 C 49.467 378.800,49.200 379.076,49.200 379.600 M350.800 379.600 C 350.800 380.133,350.533 380.400,350.000 380.400 C 349.467 380.400,349.200 380.667,349.200 381.200 C 349.200 381.640,349.391 382.000,349.624 382.000 C 349.857 382.000,349.936 381.820,349.800 381.600 C 349.664 381.380,349.833 381.200,350.176 381.200 C 350.519 381.200,350.800 381.041,350.800 380.847 C 350.800 380.652,351.160 380.399,351.600 380.284 C 352.040 380.169,352.400 379.788,352.400 379.437 C 352.400 379.067,352.065 378.800,351.600 378.800 C 351.067 378.800,350.800 379.067,350.800 379.600 M55.600 384.400 C 55.600 384.917,55.867 385.200,56.353 385.200 C 56.780 385.200,57.201 385.561,57.324 386.032 C 57.594 387.063,59.324 386.957,59.526 385.896 C 59.623 385.385,59.324 385.125,58.430 384.946 C 57.754 384.811,57.200 384.453,57.200 384.150 C 57.200 383.848,56.840 383.600,56.400 383.600 C 55.867 383.600,55.600 383.867,55.600 384.400 M344.400 384.376 C 344.400 384.934,345.135 385.287,345.643 384.974 C 345.951 384.783,345.921 384.596,345.543 384.356 C 344.829 383.904,344.400 383.911,344.400 384.376 M342.800 385.624 C 342.800 385.857,342.592 385.919,342.338 385.762 C 342.031 385.572,341.986 385.654,342.204 386.006 C 342.444 386.394,342.347 386.465,341.845 386.273 C 341.437 386.116,341.258 386.170,341.403 386.405 C 341.783 387.020,342.623 386.874,343.656 386.013 L 344.600 385.227 343.700 385.213 C 343.205 385.206,342.800 385.391,342.800 385.624 M60.222 386.764 C 59.751 387.526,60.482 388.361,61.550 388.281 C 62.517 388.208,62.587 388.107,62.215 387.303 C 61.797 386.401,60.640 386.087,60.222 386.764 M339.590 387.618 C 339.186 388.374,339.215 388.397,339.976 387.922 C 340.842 387.381,341.069 386.800,340.414 386.800 C 340.202 386.800,339.831 387.168,339.590 387.618 M63.329 388.640 C 63.086 389.274,63.778 389.982,64.653 389.994 C 65.145 390.001,65.654 388.587,65.290 388.223 C 64.825 387.758,63.565 388.026,63.329 388.640 M336.152 388.581 C 335.828 389.426,336.319 390.004,337.113 389.712 C 337.938 389.408,338.421 388.758,338.150 388.319 C 337.816 387.779,336.388 387.966,336.152 388.581 M331.600 390.372 C 331.600 390.995,331.855 391.200,332.629 391.200 C 333.942 391.200,333.825 389.862,332.496 389.672 C 331.815 389.575,331.600 389.743,331.600 390.372 M71.200 392.000 C 71.200 392.652,71.467 392.800,72.643 392.800 C 73.794 392.800,74.037 392.672,73.843 392.167 C 73.709 391.819,73.600 391.459,73.600 391.367 C 73.600 391.275,73.060 391.200,72.400 391.200 C 71.467 391.200,71.200 391.378,71.200 392.000 M327.084 392.000 C 326.918 392.636,327.072 392.800,327.837 392.800 C 328.533 392.800,328.800 392.578,328.800 392.000 C 328.800 391.483,328.533 391.200,328.047 391.200 C 327.630 391.200,327.200 391.557,327.084 392.000 M77.200 393.600 C 77.200 394.267,77.467 394.400,78.800 394.400 C 80.133 394.400,80.400 394.267,80.400 393.600 C 80.400 392.933,80.133 392.800,78.800 392.800 C 77.467 392.800,77.200 392.933,77.200 393.600 M320.800 393.623 C 320.800 394.742,324.112 394.626,324.326 393.500 C 324.437 392.916,324.155 392.800,322.629 392.800 C 321.050 392.800,320.800 392.912,320.800 393.623 M89.427 394.307 C 89.368 394.366,87.763 394.425,85.860 394.439 C 82.519 394.463,81.218 395.061,83.009 395.748 C 83.828 396.062,317.736 396.076,318.555 395.762 C 318.910 395.626,319.200 395.334,319.200 395.114 C 319.200 394.894,318.921 394.822,318.579 394.953 C 318.184 395.104,318.059 395.028,318.235 394.744 C 318.403 394.472,318.293 394.375,317.956 394.498 C 317.650 394.609,317.445 394.902,317.500 395.150 C 317.642 395.790,317.168 395.707,316.644 395.001 C 316.254 394.475,89.950 393.784,89.427 394.307 " stroke="none" fill="#ffffff" fill-rule="evenodd"></path><path id="path1" d="M84.572 41.720 C 84.257 41.896,84.000 42.319,84.000 42.659 C 84.000 43.177,83.492 43.256,80.900 43.139 C 77.896 43.004,77.796 43.029,77.666 43.948 C 77.535 44.872,77.459 44.890,74.796 44.627 C 72.154 44.367,72.057 44.389,71.931 45.279 C 71.811 46.125,71.628 46.191,69.688 46.087 C 68.526 46.025,67.266 46.168,66.888 46.406 C 66.303 46.773,66.335 46.801,67.100 46.592 C 67.730 46.420,68.000 46.519,68.000 46.921 C 68.000 47.237,67.685 47.495,67.300 47.493 C 64.126 47.481,63.600 47.610,63.600 48.400 C 63.600 49.068,63.333 49.200,61.982 49.200 C 60.664 49.200,60.387 49.329,60.482 49.900 C 60.561 50.367,60.301 50.642,59.700 50.728 C 59.122 50.810,58.800 51.132,58.800 51.628 C 58.800 52.219,58.519 52.400,57.600 52.400 C 56.940 52.400,56.421 52.535,56.447 52.700 C 56.593 53.621,56.295 54.000,55.427 54.000 C 54.805 54.000,54.362 54.289,54.200 54.800 C 54.060 55.240,53.598 55.600,53.173 55.600 C 52.667 55.600,52.400 55.876,52.400 56.400 C 52.400 57.069,52.133 57.200,50.773 57.200 C 49.328 57.200,49.174 57.290,49.400 58.000 C 49.598 58.624,49.472 58.800,48.827 58.800 C 48.267 58.800,48.000 59.058,48.000 59.600 C 48.000 60.065,47.733 60.400,47.363 60.400 C 47.012 60.400,46.631 60.760,46.516 61.200 C 46.401 61.640,45.989 62.000,45.600 62.000 C 45.211 62.000,44.799 62.360,44.684 62.800 C 44.569 63.240,44.188 63.600,43.837 63.600 C 43.467 63.600,43.200 63.935,43.200 64.400 C 43.200 64.933,42.933 65.200,42.400 65.200 C 41.960 65.200,41.600 65.458,41.600 65.773 C 41.600 66.088,41.240 66.460,40.800 66.600 C 40.360 66.740,40.000 67.202,40.000 67.627 C 40.000 68.133,39.724 68.400,39.200 68.400 C 38.760 68.400,38.400 68.658,38.400 68.973 C 38.400 69.288,38.040 69.660,37.600 69.800 C 37.009 69.988,36.800 70.405,36.800 71.400 C 36.800 72.395,36.591 72.812,36.000 73.000 C 35.553 73.142,35.200 73.605,35.200 74.051 C 35.200 74.489,35.040 74.749,34.845 74.628 C 34.454 74.386,33.536 75.317,33.633 75.858 C 33.816 76.878,33.506 77.531,32.745 77.730 C 32.030 77.917,31.931 78.155,32.138 79.190 C 32.350 80.249,32.243 80.479,31.393 80.803 C 30.774 81.038,30.400 81.494,30.400 82.014 C 30.400 82.472,30.220 82.736,30.000 82.600 C 29.780 82.464,29.600 82.633,29.600 82.976 C 29.600 83.319,29.420 83.600,29.200 83.600 C 28.978 83.600,28.800 84.667,28.800 86.000 C 28.800 88.160,27.743 89.763,27.547 87.900 C 27.518 87.625,27.374 88.030,27.226 88.800 C 27.079 89.570,27.069 90.380,27.204 90.600 C 27.429 90.966,27.438 91.303,27.261 92.671 C 27.227 92.930,26.895 93.200,26.523 93.272 C 25.959 93.380,25.842 93.919,25.823 96.497 C 25.810 98.199,25.640 99.578,25.445 99.561 C 24.490 99.481,24.412 108.480,24.406 219.300 L 24.400 338.000 25.255 338.000 C 26.067 338.000,26.097 338.130,25.848 340.565 C 25.598 343.000,25.625 343.118,26.392 342.918 C 27.133 342.724,27.596 345.094,27.247 347.300 C 27.221 347.465,27.560 347.600,28.000 347.600 C 28.600 347.600,28.800 347.867,28.800 348.667 C 28.800 349.253,28.665 349.598,28.500 349.433 C 28.335 349.268,28.200 348.968,28.200 348.767 C 28.200 348.565,28.065 348.400,27.900 348.400 C 27.735 348.400,27.600 348.490,27.600 348.600 C 27.600 348.710,27.600 349.179,27.600 349.643 C 27.600 350.228,27.784 350.415,28.200 350.255 C 28.614 350.097,28.800 350.281,28.800 350.850 C 28.800 351.338,29.126 351.760,29.600 351.884 C 30.219 352.046,30.400 352.430,30.400 353.578 C 30.400 354.861,30.523 355.059,31.300 355.032 C 31.941 355.009,32.237 355.259,32.328 355.900 C 32.398 356.395,32.269 356.800,32.040 356.800 C 31.259 356.800,32.066 357.953,32.934 358.077 C 33.672 358.182,33.783 358.422,33.683 359.700 C 33.582 360.982,33.684 361.200,34.383 361.200 C 34.946 361.200,35.200 361.461,35.200 362.037 C 35.200 362.538,35.521 362.959,36.000 363.084 C 36.606 363.243,36.800 363.630,36.800 364.684 C 36.800 365.738,36.994 366.125,37.600 366.284 C 38.040 366.399,38.400 366.759,38.400 367.084 C 38.400 367.409,38.760 367.769,39.200 367.884 C 39.640 367.999,40.000 368.359,40.000 368.684 C 40.000 369.009,40.360 369.369,40.800 369.484 C 41.296 369.614,41.619 370.056,41.650 370.647 C 41.733 372.235,41.785 372.401,42.184 372.370 C 42.396 372.354,42.698 372.669,42.856 373.070 C 43.120 373.740,43.146 373.743,43.172 373.100 C 43.203 372.315,44.200 372.152,44.638 372.861 C 44.794 373.114,44.654 373.519,44.327 373.761 C 43.645 374.264,44.336 375.230,45.742 375.738 C 46.172 375.894,46.391 376.246,46.264 376.578 C 46.121 376.950,46.351 377.194,46.922 377.275 C 47.503 377.358,47.760 377.637,47.682 378.100 C 47.587 378.669,47.863 378.800,49.156 378.800 C 50.395 378.800,50.802 378.977,51.000 379.600 C 51.140 380.040,51.512 380.400,51.827 380.400 C 52.142 380.400,52.400 380.687,52.400 381.037 C 52.400 381.388,52.760 381.769,53.200 381.884 C 53.643 382.000,54.000 382.430,54.000 382.847 C 54.000 383.459,54.300 383.600,55.600 383.600 C 56.691 383.600,57.200 383.775,57.200 384.150 C 57.200 384.452,57.761 384.812,58.447 384.949 C 59.455 385.151,59.653 385.354,59.481 386.011 C 59.291 386.738,59.407 386.797,60.579 386.578 C 61.903 386.329,63.021 387.693,61.858 388.136 C 61.606 388.232,62.300 388.285,63.400 388.255 C 65.273 388.203,65.392 388.259,65.271 389.124 C 65.188 389.713,65.333 390.023,65.671 389.977 C 67.039 389.792,68.000 390.049,68.000 390.600 C 68.000 391.076,68.575 391.200,70.773 391.200 C 73.195 391.200,73.578 391.301,73.800 392.000 C 74.026 392.711,74.405 392.800,77.227 392.800 C 80.133 392.800,80.400 392.867,80.400 393.600 C 80.400 394.328,83.191 394.804,85.324 394.439 C 88.170 393.953,316.278 394.507,316.644 395.001 C 317.168 395.707,317.642 395.790,317.500 395.150 C 317.445 394.903,317.650 394.609,317.956 394.498 C 318.261 394.387,318.404 394.470,318.272 394.683 C 318.129 394.915,318.589 394.896,319.416 394.637 C 320.305 394.359,320.800 393.953,320.800 393.502 C 320.800 392.894,321.208 392.800,323.837 392.800 C 326.538 392.800,326.898 392.711,327.084 392.000 C 327.261 391.325,327.630 391.200,329.447 391.200 C 331.321 391.200,331.600 391.098,331.600 390.414 C 331.600 389.704,331.827 389.642,333.929 389.783 C 336.107 389.929,336.255 389.883,336.229 389.070 C 336.204 388.324,336.417 388.200,337.725 388.200 C 338.760 388.200,339.376 387.975,339.645 387.500 C 339.862 387.115,340.391 386.800,340.820 386.800 C 341.249 386.800,341.960 386.440,342.400 386.000 C 342.840 385.560,343.515 385.194,343.900 385.187 C 344.765 385.172,346.082 384.215,345.727 383.860 C 345.493 383.627,346.162 383.443,346.876 383.545 C 347.027 383.566,347.264 383.227,347.403 382.792 C 347.541 382.356,348.002 382.000,348.427 382.000 C 348.933 382.000,349.200 381.724,349.200 381.200 C 349.200 380.667,349.467 380.400,350.000 380.400 C 350.533 380.400,350.800 380.133,350.800 379.600 C 350.800 378.930,351.067 378.800,352.447 378.800 C 353.896 378.800,354.068 378.704,353.884 378.000 C 353.717 377.359,353.872 377.200,354.664 377.200 C 355.472 377.200,355.607 377.053,355.400 376.400 C 355.223 375.843,355.328 375.600,355.746 375.600 C 356.076 375.600,356.454 375.259,356.586 374.843 C 356.718 374.427,357.181 373.994,357.613 373.881 C 358.046 373.767,358.400 373.388,358.400 373.037 C 358.400 372.667,358.735 372.400,359.200 372.400 C 359.898 372.400,360.200 371.818,360.062 370.743 C 360.043 370.601,360.562 370.264,361.214 369.994 C 361.866 369.724,362.403 369.300,362.406 369.051 C 362.409 368.803,362.587 368.870,362.800 369.200 C 363.080 369.634,363.189 369.274,363.194 367.900 C 363.198 366.552,363.361 366.000,363.753 366.000 C 364.058 366.000,364.401 365.640,364.516 365.200 C 364.641 364.721,365.062 364.400,365.563 364.400 C 366.258 364.400,366.400 364.155,366.400 362.953 C 366.400 361.704,366.509 361.535,367.200 361.716 C 367.836 361.882,368.000 361.728,368.000 360.963 C 368.000 360.267,368.222 360.000,368.800 360.000 C 369.467 360.000,369.600 359.733,369.600 358.400 C 369.600 357.067,369.733 356.800,370.400 356.800 C 371.012 356.800,371.200 356.533,371.200 355.667 C 371.200 354.301,371.555 353.865,372.218 354.415 C 372.600 354.732,372.681 354.328,372.579 352.613 C 372.454 350.530,373.287 349.020,374.107 349.841 C 374.224 349.957,374.293 349.006,374.260 347.727 C 374.209 345.736,374.301 345.408,374.900 345.456 C 375.512 345.504,375.600 345.115,375.600 342.356 C 375.600 339.480,375.670 339.200,376.390 339.200 C 377.142 339.200,377.186 338.869,377.290 332.500 C 377.374 327.399,377.519 325.824,377.900 325.900 C 378.183 325.957,378.397 325.609,378.394 325.100 C 378.389 324.454,378.292 324.351,378.050 324.734 C 377.251 325.993,377.200 317.476,377.200 184.167 L 377.200 44.400 376.353 44.400 C 375.729 44.400,375.557 44.207,375.699 43.666 C 375.853 43.075,375.706 42.967,374.945 43.113 C 374.193 43.256,374.000 43.121,374.000 42.448 L 374.000 41.602 229.572 41.501 C 150.136 41.445,84.886 41.544,84.572 41.720 M332.026 100.014 C 332.891 100.477,333.251 129.868,332.408 131.200 C 331.883 132.031,50.036 132.313,48.400 131.484 L 47.400 130.977 47.292 122.094 C 47.205 114.872,47.298 112.939,47.792 111.757 C 48.127 110.957,48.406 109.739,48.414 109.051 C 48.421 108.363,48.775 107.080,49.200 106.200 C 49.625 105.320,49.979 104.403,49.986 104.161 C 49.994 103.920,50.315 103.338,50.700 102.869 C 51.085 102.399,51.714 101.575,52.097 101.036 C 52.481 100.497,53.201 99.978,53.697 99.883 C 55.790 99.480,331.271 99.610,332.026 100.014 M310.600 145.972 C 311.260 146.248,312.956 146.641,314.369 146.845 C 315.783 147.049,317.763 147.483,318.769 147.808 C 319.776 148.133,322.040 148.861,323.800 149.425 C 326.881 150.412,329.135 151.278,330.400 151.962 C 330.915 152.241,331.015 154.534,331.105 168.154 C 331.221 185.755,331.298 185.267,328.663 183.639 C 327.916 183.178,327.085 182.800,326.816 182.800 C 326.547 182.800,325.869 182.440,325.309 182.000 C 324.750 181.560,323.940 181.200,323.509 181.200 C 323.079 181.200,322.269 180.840,321.709 180.400 C 321.150 179.960,320.266 179.600,319.745 179.600 C 319.223 179.600,318.125 179.240,317.304 178.800 C 316.484 178.360,315.449 177.999,315.006 177.998 C 314.563 177.996,313.685 177.726,313.055 177.398 C 312.426 177.070,310.765 176.618,309.365 176.394 C 307.966 176.171,306.321 175.795,305.710 175.559 C 299.213 173.050,280.225 175.633,272.800 180.036 C 272.470 180.232,271.570 180.755,270.800 181.200 C 268.442 182.562,267.875 182.944,265.802 184.570 C 260.639 188.620,254.940 195.087,252.909 199.200 C 252.637 199.750,252.246 200.470,252.039 200.800 C 251.165 202.196,250.080 204.729,249.804 206.016 C 249.641 206.777,249.344 207.604,249.144 207.852 C 247.426 209.993,247.610 228.253,249.393 232.521 C 249.727 233.320,250.000 234.268,250.000 234.627 C 250.000 235.853,253.391 242.865,255.791 246.600 C 260.132 253.359,271.651 262.324,278.200 264.040 C 278.860 264.213,280.210 264.616,281.200 264.936 C 283.450 265.662,291.152 266.809,293.743 266.804 C 297.718 266.796,310.397 264.274,311.800 263.213 C 312.020 263.046,312.740 262.785,313.400 262.632 C 315.162 262.223,323.590 258.234,327.000 256.195 C 331.487 253.513,331.200 252.493,331.200 271.123 C 331.200 288.012,331.104 288.800,329.057 288.800 C 328.834 288.800,327.831 289.172,326.826 289.627 C 325.822 290.081,324.280 290.777,323.400 291.173 C 322.520 291.569,321.172 292.030,320.406 292.199 C 319.639 292.367,318.649 292.734,318.206 293.014 C 317.763 293.294,316.590 293.652,315.600 293.809 C 314.610 293.966,313.350 294.319,312.800 294.594 C 312.250 294.868,310.671 295.217,309.291 295.367 C 307.911 295.518,306.021 295.914,305.091 296.247 C 303.756 296.725,301.310 296.854,293.480 296.860 C 283.262 296.868,282.475 296.781,274.600 294.759 C 273.720 294.533,272.171 294.135,271.159 293.874 C 270.146 293.613,269.066 293.200,268.759 292.955 C 268.451 292.710,267.660 292.382,267.000 292.226 C 264.330 291.593,257.685 288.027,252.270 284.321 C 246.387 280.294,238.192 272.503,233.710 266.676 C 232.220 264.737,230.685 262.775,230.300 262.315 C 229.915 261.854,229.600 261.334,229.600 261.159 C 229.600 260.984,229.084 260.066,228.454 259.120 C 226.332 255.937,222.484 247.603,221.761 244.627 C 221.605 243.981,221.235 242.991,220.941 242.427 C 220.646 241.862,220.404 240.764,220.402 239.986 C 220.401 239.209,220.062 237.589,219.648 236.386 C 218.151 232.029,218.231 210.248,219.758 206.713 C 220.111 205.895,220.400 204.507,220.400 203.628 C 220.400 202.749,220.760 201.116,221.200 200.000 C 221.640 198.884,222.006 197.662,222.014 197.285 C 222.021 196.908,222.375 195.880,222.800 195.000 C 223.225 194.120,223.579 193.186,223.586 192.924 C 223.600 192.448,226.499 185.935,227.202 184.800 C 227.406 184.470,228.156 183.210,228.867 182.000 C 229.579 180.790,230.395 179.562,230.681 179.271 C 230.966 178.981,231.200 178.588,231.200 178.398 C 231.200 177.164,240.670 166.798,245.600 162.636 C 246.810 161.614,248.070 160.551,248.400 160.272 C 249.366 159.457,254.635 156.000,254.912 156.000 C 255.051 156.000,255.841 155.541,256.669 154.979 C 257.496 154.418,259.349 153.417,260.787 152.755 C 262.224 152.093,264.140 151.203,265.044 150.776 C 265.948 150.349,266.911 150.000,267.183 150.000 C 267.456 150.000,268.246 149.747,268.940 149.438 C 270.941 148.544,275.557 147.281,278.568 146.803 C 280.091 146.561,281.523 146.248,281.751 146.107 C 283.304 145.147,308.343 145.030,310.600 145.972 M151.397 151.700 C 151.525 152.415,151.579 159.660,151.515 167.800 L 151.400 182.600 99.843 182.702 C 62.073 182.776,48.140 182.683,47.743 182.353 C 47.079 181.801,46.937 153.143,47.590 151.426 L 47.980 150.400 99.572 150.400 L 151.164 150.400 151.397 151.700 M105.867 203.733 C 106.421 204.287,106.519 234.774,105.969 235.437 C 105.380 236.147,49.290 236.291,47.974 235.586 C 47.230 235.188,47.200 234.595,47.200 220.412 C 47.200 205.508,47.346 203.829,48.677 203.475 C 49.949 203.136,105.520 203.387,105.867 203.733 M189.612 207.227 C 194.415 208.422,203.575 213.721,207.786 217.740 L 209.400 219.281 208.481 219.940 C 207.976 220.303,206.676 221.275,205.593 222.100 C 204.510 222.925,203.543 223.600,203.445 223.600 C 203.347 223.600,201.909 224.509,200.248 225.619 C 190.074 232.424,181.193 233.173,175.386 227.716 C 165.316 218.252,175.422 203.695,189.612 207.227 M292.485 208.827 C 301.256 212.255,303.054 223.477,295.787 229.432 C 292.214 232.360,284.713 233.618,281.400 231.847 C 280.740 231.494,279.945 231.204,279.633 231.202 C 278.871 231.199,272.846 227.920,270.270 226.106 C 269.131 225.305,267.143 223.923,265.851 223.035 C 263.432 221.374,262.147 219.618,263.114 219.295 C 263.391 219.203,264.469 218.515,265.509 217.767 C 266.549 217.019,268.660 215.577,270.200 214.563 C 271.740 213.549,273.471 212.390,274.046 211.987 C 279.149 208.419,287.694 206.954,292.485 208.827 M160.600 271.200 L 160.600 287.400 104.930 287.501 C 69.336 287.566,48.888 287.462,48.230 287.211 L 47.200 286.820 47.205 271.910 C 47.211 256.290,47.274 255.352,48.341 255.067 C 48.703 254.970,74.110 254.916,104.800 254.946 L 160.600 255.000 160.600 271.200 M218.557 306.633 C 219.107 308.065,218.823 337.083,218.254 337.555 C 217.851 337.889,196.545 337.981,136.670 337.904 L 55.630 337.800 53.713 335.911 C 51.891 334.116,50.956 332.617,49.402 329.000 C 47.552 324.692,46.395 307.309,47.900 306.432 C 49.218 305.664,218.262 305.863,218.557 306.633 M85.300 395.876 C 85.685 395.976,86.315 395.976,86.700 395.876 C 87.085 395.775,86.770 395.693,86.000 395.693 C 85.230 395.693,84.915 395.775,85.300 395.876 " stroke="none" fill="#428bca" fill-rule="evenodd"></path></g></svg>