<svg width="400" height="100" xmlns="http://www.w3.org/2000/svg">
 <!-- Created with Method Draw - http://github.com/duopixel/Method-Draw/ -->

 <g>
  <title>background</title>
  <rect x="-1" y="-1" width="402" height="102" id="canvas_background" fill="#4267b2"/>
  <g id="canvasGrid" display="none">
   <rect id="svg_2" width="100%" height="100%" x="0" y="0" stroke-width="0" fill="url(#gridpattern)"/>
  </g>
 </g>
 <g>
  <title>Layer 1</title>
  <path stroke="null" d="m94.29185,87.307c2.21607,0 4.01314,-1.74768 4.01314,-3.90339l0,-62.91249c0,-2.15599 -1.79678,-3.90312 -4.01314,-3.90312l-64.69043,0c-2.21692,0 -4.01342,1.74713 -4.01342,3.90312l0,62.91249c0,2.15544 1.79622,3.90339 4.01342,3.90339l64.69043,0z" fill="#FFFFFF" id="Blue_1_"/>
  <path stroke="null" d="m77.53446,94.30702l0,-29.1l9.02824,0l1.35185,-11.34078l-10.38009,0l0,-7.24038c0,-3.28342 0.84275,-5.52096 5.19476,-5.52096l5.55078,-0.00262l0,-10.14329c-0.95999,-0.1382 -4.25499,-0.44698 -8.08847,-0.44698c-8.00303,0 -13.48212,5.28508 -13.48212,14.99072l0,8.36352l-9.05142,0l0,11.34078l9.05142,0l0,29.1l10.82505,0l0,-0.00001z" fill="#4267b2" id="f"/>
  <text stroke="#000" transform="matrix(4.516704866200288,0,0,4.744747452079884,-475.9745958150389,-231.54510358291148) " fill="#ffffff" stroke-width="0" x="133.95938" y="63.49153" id="svg_1" font-size="12" font-family="Helvetica, Arial, sans-serif" text-anchor="start" xml:space="preserve">Log out</text>
 </g>
</svg>